<svg width="332" height="282" viewBox="0 0 332 282" fill="none" xmlns="http://www.w3.org/2000/svg">
<path d="M28.9092 189.069C17.3612 189.068 8 200.534 8 214.677C8 228.82 16.475 238.513 28.9092 240.285L184.426 274.447L324.152 195.812" stroke="#333333" stroke-width="15" stroke-linecap="round" stroke-linejoin="round"/>
<path d="M28.9092 137.852C17.3612 137.852 8 149.317 8 163.46C8 177.603 16.475 187.297 28.9092 189.069L184.426 223.23L324.152 144.595" stroke="#333333" stroke-width="15" stroke-linecap="round" stroke-linejoin="round"/>
<path d="M28.9092 86.635C17.3612 86.6348 8 98.1001 8 112.243C8 126.387 16.475 136.08 28.9092 137.852L104.769 154.516M150.169 164.489L184.426 172.014L324.152 93.3785" stroke="#333333" stroke-width="15" stroke-linecap="round" stroke-linejoin="round"/>
<path d="M168.637 8L25.1436 86.6347L184.426 120.796L324.152 42.1613L168.637 8Z" fill="#333333" stroke="#333333" stroke-width="15" stroke-linecap="round" stroke-linejoin="round"/>
<path d="M172.243 17.9919L136.228 38.3757L194.066 51.0805L230.08 30.6968L172.243 17.9919Z" fill="#CC0000" stroke="#333333" stroke-linecap="round" stroke-linejoin="round"/>
<path fill-rule="evenodd" clip-rule="evenodd" d="M112 131V196.34L126.705 187.287L143 205V136.117L112 131Z" fill="#CC0000"/>
</svg>
