<svg width="825" height="350" viewBox="0 0 825 350" fill="none" xmlns="http://www.w3.org/2000/svg">
<path d="M521.909 229.069C510.361 229.068 501 240.534 501 254.677C501 268.82 509.475 278.513 521.909 280.285L677.426 314.447L817.152 235.812" stroke="#333333" stroke-width="15" stroke-linecap="round" stroke-linejoin="round"/>
<path d="M521.909 177.852C510.361 177.852 501 189.317 501 203.46C501 217.603 509.475 227.297 521.909 229.069L677.426 263.23L817.152 184.595" stroke="#333333" stroke-width="15" stroke-linecap="round" stroke-linejoin="round"/>
<path d="M521.909 126.635C510.361 126.635 501 138.1 501 152.243C501 166.387 509.475 176.08 521.909 177.852L597.769 194.516M643.169 204.489L677.426 212.014L817.152 133.378" stroke="#333333" stroke-width="15" stroke-linecap="round" stroke-linejoin="round"/>
<path d="M661.637 48L518.144 126.635L677.426 160.796L817.152 82.1613L661.637 48Z" fill="#333333" stroke="#333333" stroke-width="15" stroke-linecap="round" stroke-linejoin="round"/>
<path d="M665.243 57.9919L629.228 78.3757L687.066 91.0805L723.08 70.6968L665.243 57.9919Z" fill="#CC0000" stroke="#333333" stroke-linecap="round" stroke-linejoin="round"/>
<path fill-rule="evenodd" clip-rule="evenodd" d="M605.914 171.232V235.93L620.133 226.966L635.889 244.505V176.299L605.914 171.232Z" fill="#CC0000"/>
<path d="M2.88 125.384H10.08V60.584H2.88V36.968H68.976C80.976 36.968 90.336 39.416 97.056 44.312C103.776 49.208 107.136 56.216 107.136 65.336C107.136 71 105.792 75.8 103.104 79.736C100.416 83.576 97.248 86.504 93.6 88.52C90.048 90.44 86.592 91.736 83.232 92.408V93.848C90.048 94.52 96.192 96.68 101.664 100.328C107.136 103.976 109.872 110.504 109.872 119.912C109.872 129.992 106.08 137.384 98.496 142.088C90.912 146.696 81.072 149 68.976 149H2.88V125.384ZM58.176 84.2C60.96 84.2 63.024 83.48 64.368 82.04C65.808 80.504 66.528 78.152 66.528 74.984V69.8C66.528 66.632 65.808 64.328 64.368 62.888C63.024 61.352 60.96 60.584 58.176 60.584H50.4V84.2H58.176ZM59.184 125.384C61.968 125.384 64.032 124.664 65.376 123.224C66.816 121.688 67.536 119.336 67.536 116.168V109.832C67.536 106.664 66.816 104.36 65.376 102.92C64.032 101.384 61.968 100.616 59.184 100.616H50.4V125.384H59.184ZM175.736 66.92C177.656 66.92 179.48 67.112 181.208 67.496C182.936 67.88 184.376 68.36 185.528 68.936V96.44C181.592 94.808 177.368 93.992 172.856 93.992C166.808 93.992 162.152 95.576 158.888 98.744C155.624 101.912 153.992 106.616 153.992 112.856V125.384H166.952V149H114.536V125.384H120.872V92.552H114.536V68.936H153.992V79.448C156.68 75.416 159.752 72.344 163.208 70.232C166.664 68.024 170.84 66.92 175.736 66.92ZM233.098 151.016C219.466 151.016 208.81 147.464 201.13 140.36C193.45 133.16 189.61 122.696 189.61 108.968C189.61 95.24 193.45 84.824 201.13 77.72C208.81 70.52 219.466 66.92 233.098 66.92C246.922 66.92 257.626 70.568 265.21 77.864C272.794 85.064 276.586 95.432 276.586 108.968C276.586 122.696 272.746 133.16 265.066 140.36C257.386 147.464 246.73 151.016 233.098 151.016ZM233.098 125.384C235.882 125.384 237.946 124.664 239.29 123.224C240.73 121.688 241.45 119.336 241.45 116.168V101.768C241.45 98.6 240.73 96.296 239.29 94.856C237.946 93.32 235.882 92.552 233.098 92.552C230.314 92.552 228.202 93.32 226.762 94.856C225.418 96.296 224.746 98.6 224.746 101.768V116.168C224.746 119.336 225.418 121.688 226.762 123.224C228.202 124.664 230.314 125.384 233.098 125.384ZM324.226 151.016C310.498 151.016 299.794 147.464 292.114 140.36C284.434 133.16 280.594 122.696 280.594 108.968C280.594 95.24 284.434 84.824 292.114 77.72C299.794 70.52 310.45 66.92 324.082 66.92C330.706 66.92 337.042 67.832 343.09 69.656C349.138 71.48 353.842 73.544 357.202 75.848V104.36H332.434V101.768C332.434 98.6 331.762 96.296 330.418 94.856C329.074 93.32 326.962 92.552 324.082 92.552C318.514 92.552 315.73 95.624 315.73 101.768V114.152C315.73 121.64 320.002 125.384 328.546 125.384C336.514 125.384 345.778 124.52 356.338 122.792V145.4C353.074 146.84 348.466 148.136 342.514 149.288C336.658 150.44 330.562 151.016 324.226 151.016ZM448.862 125.384H455.054V149H419.774L404.942 121.352H401.486V149H362.03V125.384H368.366V60.584H362.03V36.968H401.486V95.432H404.942L422.798 68.936H453.182V92.552H447.278L435.038 106.232L448.862 125.384Z" fill="#CC0000"/>
<path d="M69.88 278.384H77.08V213.584H69.88V189.968H135.976C147.976 189.968 157.336 192.416 164.056 197.312C170.776 202.208 174.136 209.216 174.136 218.336C174.136 224 172.792 228.8 170.104 232.736C167.416 236.576 164.248 239.504 160.6 241.52C157.048 243.44 153.592 244.736 150.232 245.408V246.848C157.048 247.52 163.192 249.68 168.664 253.328C174.136 256.976 176.872 263.504 176.872 272.912C176.872 282.992 173.08 290.384 165.496 295.088C157.912 299.696 148.072 302 135.976 302H69.88V278.384ZM125.176 237.2C127.96 237.2 130.024 236.48 131.368 235.04C132.808 233.504 133.528 231.152 133.528 227.984V222.8C133.528 219.632 132.808 217.328 131.368 215.888C130.024 214.352 127.96 213.584 125.176 213.584H117.4V237.2H125.176ZM126.184 278.384C128.968 278.384 131.032 277.664 132.376 276.224C133.816 274.688 134.536 272.336 134.536 269.168V262.832C134.536 259.664 133.816 257.36 132.376 255.92C131.032 254.384 128.968 253.616 126.184 253.616H117.4V278.384H126.184ZM224.16 304.016C210.528 304.016 199.872 300.464 192.192 293.36C184.512 286.16 180.672 275.696 180.672 261.968C180.672 248.24 184.512 237.824 192.192 230.72C199.872 223.52 210.528 219.92 224.16 219.92C237.984 219.92 248.688 223.568 256.272 230.864C263.856 238.064 267.648 248.432 267.648 261.968C267.648 275.696 263.808 286.16 256.128 293.36C248.448 300.464 237.792 304.016 224.16 304.016ZM224.16 278.384C226.944 278.384 229.008 277.664 230.352 276.224C231.792 274.688 232.512 272.336 232.512 269.168V254.768C232.512 251.6 231.792 249.296 230.352 247.856C229.008 246.32 226.944 245.552 224.16 245.552C221.376 245.552 219.264 246.32 217.824 247.856C216.48 249.296 215.808 251.6 215.808 254.768V269.168C215.808 272.336 216.48 274.688 217.824 276.224C219.264 277.664 221.376 278.384 224.16 278.384ZM315.145 304.016C301.513 304.016 290.857 300.464 283.177 293.36C275.497 286.16 271.657 275.696 271.657 261.968C271.657 248.24 275.497 237.824 283.177 230.72C290.857 223.52 301.513 219.92 315.145 219.92C328.969 219.92 339.673 223.568 347.257 230.864C354.841 238.064 358.633 248.432 358.633 261.968C358.633 275.696 354.793 286.16 347.113 293.36C339.433 300.464 328.777 304.016 315.145 304.016ZM315.145 278.384C317.929 278.384 319.993 277.664 321.337 276.224C322.777 274.688 323.497 272.336 323.497 269.168V254.768C323.497 251.6 322.777 249.296 321.337 247.856C319.993 246.32 317.929 245.552 315.145 245.552C312.361 245.552 310.249 246.32 308.809 247.856C307.465 249.296 306.793 251.6 306.793 254.768V269.168C306.793 272.336 307.465 274.688 308.809 276.224C310.249 277.664 312.361 278.384 315.145 278.384ZM450.049 278.384H456.241V302H420.961L406.129 274.352H402.673V302H363.217V278.384H369.553V213.584H363.217V189.968H402.673V248.432H406.129L423.985 221.936H454.369V245.552H448.465L436.225 259.232L450.049 278.384Z" fill="#CC0000"/>
</svg>
