<svg width="826" height="350" viewBox="0 0 826 350" fill="none" xmlns="http://www.w3.org/2000/svg">
<path d="M809 239.5V82L520.5 126L498.5 148L510 177L503.5 206.5L510 230L503.5 261.5L514.5 280L678.5 315.5L809 239.5Z" fill="white"/>
<path d="M521.909 229.069C510.361 229.068 501 240.534 501 254.677C501 268.82 509.475 278.513 521.909 280.285L677.426 314.447L817.152 235.812" stroke="white" stroke-width="17" stroke-linecap="round" stroke-linejoin="round"/>
<path d="M521.909 177.852C510.361 177.852 501 189.317 501 203.46C501 217.603 509.475 227.297 521.909 229.069L677.426 263.23L817.152 184.595" stroke="white" stroke-width="17" stroke-linecap="round" stroke-linejoin="round"/>
<path d="M521.909 126.635C510.361 126.635 501 138.1 501 152.243C501 166.387 509.475 176.08 521.909 177.852L597.769 194.516M643.169 204.489L677.426 212.014L817.152 133.378" stroke="white" stroke-width="17" stroke-linecap="round" stroke-linejoin="round"/>
<path d="M661.637 48L518.144 126.635L677.426 160.796L817.152 82.1613L661.637 48Z" fill="#333333" stroke="white" stroke-width="17" stroke-linecap="round" stroke-linejoin="round"/>
<path d="M665.243 57.9919L629.228 78.3757L687.066 91.0805L723.08 70.6968L665.243 57.9919Z" fill="#CC0000" stroke="white" stroke-linecap="round" stroke-linejoin="round"/>
<path d="M605.163 170.013L604 169.821V171V236.34V238.13L605.524 237.192L619.527 228.571L635.264 245.677L637 247.564V245V176.117V175.268L636.163 175.13L605.163 170.013Z" fill="#CC0000" stroke="white" stroke-width="2"/>
<path d="M2.88 125.384H10.08V60.584H2.88V36.968H68.976C80.976 36.968 90.336 39.416 97.056 44.312C103.776 49.208 107.136 56.216 107.136 65.336C107.136 71 105.792 75.8 103.104 79.736C100.416 83.576 97.248 86.504 93.6 88.52C90.048 90.44 86.592 91.736 83.232 92.408V93.848C90.048 94.52 96.192 96.68 101.664 100.328C107.136 103.976 109.872 110.504 109.872 119.912C109.872 129.992 106.08 137.384 98.496 142.088C90.912 146.696 81.072 149 68.976 149H2.88V125.384ZM58.176 84.2C60.96 84.2 63.024 83.48 64.368 82.04C65.808 80.504 66.528 78.152 66.528 74.984V69.8C66.528 66.632 65.808 64.328 64.368 62.888C63.024 61.352 60.96 60.584 58.176 60.584H50.4V84.2H58.176ZM59.184 125.384C61.968 125.384 64.032 124.664 65.376 123.224C66.816 121.688 67.536 119.336 67.536 116.168V109.832C67.536 106.664 66.816 104.36 65.376 102.92C64.032 101.384 61.968 100.616 59.184 100.616H50.4V125.384H59.184ZM175.736 66.92C177.656 66.92 179.48 67.112 181.208 67.496C182.936 67.88 184.376 68.36 185.528 68.936V96.44C181.592 94.808 177.368 93.992 172.856 93.992C166.808 93.992 162.152 95.576 158.888 98.744C155.624 101.912 153.992 106.616 153.992 112.856V125.384H166.952V149H114.536V125.384H120.872V92.552H114.536V68.936H153.992V79.448C156.68 75.416 159.752 72.344 163.208 70.232C166.664 68.024 170.84 66.92 175.736 66.92ZM233.098 151.016C219.466 151.016 208.81 147.464 201.13 140.36C193.45 133.16 189.61 122.696 189.61 108.968C189.61 95.24 193.45 84.824 201.13 77.72C208.81 70.52 219.466 66.92 233.098 66.92C246.922 66.92 257.626 70.568 265.21 77.864C272.794 85.064 276.586 95.432 276.586 108.968C276.586 122.696 272.746 133.16 265.066 140.36C257.386 147.464 246.73 151.016 233.098 151.016ZM233.098 125.384C235.882 125.384 237.946 124.664 239.29 123.224C240.73 121.688 241.45 119.336 241.45 116.168V101.768C241.45 98.6 240.73 96.296 239.29 94.856C237.946 93.32 235.882 92.552 233.098 92.552C230.314 92.552 228.202 93.32 226.762 94.856C225.418 96.296 224.746 98.6 224.746 101.768V116.168C224.746 119.336 225.418 121.688 226.762 123.224C228.202 124.664 230.314 125.384 233.098 125.384ZM324.226 151.016C310.498 151.016 299.794 147.464 292.114 140.36C284.434 133.16 280.594 122.696 280.594 108.968C280.594 95.24 284.434 84.824 292.114 77.72C299.794 70.52 310.45 66.92 324.082 66.92C330.706 66.92 337.042 67.832 343.09 69.656C349.138 71.48 353.842 73.544 357.202 75.848V104.36H332.434V101.768C332.434 98.6 331.762 96.296 330.418 94.856C329.074 93.32 326.962 92.552 324.082 92.552C318.514 92.552 315.73 95.624 315.73 101.768V114.152C315.73 121.64 320.002 125.384 328.546 125.384C336.514 125.384 345.778 124.52 356.338 122.792V145.4C353.074 146.84 348.466 148.136 342.514 149.288C336.658 150.44 330.562 151.016 324.226 151.016ZM448.862 125.384H455.054V149H419.774L404.942 121.352H401.486V149H362.03V125.384H368.366V60.584H362.03V36.968H401.486V95.432H404.942L422.798 68.936H453.182V92.552H447.278L435.038 106.232L448.862 125.384Z" fill="#CC0000"/>
<path d="M2.88 125.384V123.384H0.88V125.384H2.88ZM10.08 125.384V127.384H12.08V125.384H10.08ZM10.08 60.584H12.08V58.584H10.08V60.584ZM2.88 60.584H0.88V62.584H2.88V60.584ZM2.88 36.968V34.968H0.88V36.968H2.88ZM103.104 79.736L104.742 80.8829L104.749 80.8735L104.756 80.8639L103.104 79.736ZM93.6 88.52L94.551 90.2794L94.5592 90.275L94.5674 90.2705L93.6 88.52ZM83.232 92.408L82.8398 90.4468L81.232 90.7684V92.408H83.232ZM83.232 93.848H81.232V95.6605L83.0358 95.8383L83.232 93.848ZM101.664 100.328L102.773 98.6639L102.773 98.6639L101.664 100.328ZM98.496 142.088L99.5345 143.797L99.5424 143.792L99.5502 143.788L98.496 142.088ZM2.88 149H0.88V151H2.88V149ZM64.368 82.04L62.9089 80.6721L62.9059 80.6754L64.368 82.04ZM64.368 62.888L62.8629 64.205L62.9067 64.2551L62.9538 64.3022L64.368 62.888ZM50.4 60.584V58.584H48.4V60.584H50.4ZM50.4 84.2H48.4V86.2H50.4V84.2ZM65.376 123.224L63.9169 121.856L63.9139 121.859L65.376 123.224ZM65.376 102.92L63.8709 104.237L63.9147 104.287L63.9618 104.334L65.376 102.92ZM50.4 100.616V98.616H48.4V100.616H50.4ZM50.4 125.384H48.4V127.384H50.4V125.384ZM2.88 127.384H10.08V123.384H2.88V127.384ZM12.08 125.384V60.584H8.08V125.384H12.08ZM10.08 58.584H2.88V62.584H10.08V58.584ZM4.88 60.584V36.968H0.88V60.584H4.88ZM2.88 38.968H68.976V34.968H2.88V38.968ZM68.976 38.968C80.7331 38.968 89.622 41.3703 95.8783 45.9285L98.2337 42.6955C91.05 37.4617 81.2189 34.968 68.976 34.968V38.968ZM95.8783 45.9285C102.026 50.4076 105.136 56.7833 105.136 65.336H109.136C109.136 55.6486 105.526 48.0084 98.2337 42.6955L95.8783 45.9285ZM105.136 65.336C105.136 70.6749 103.873 75.063 101.452 78.6081L104.756 80.8639C107.711 76.5369 109.136 71.3251 109.136 65.336H105.136ZM101.466 78.5891C98.9304 82.2107 95.9823 84.9184 92.6326 86.7695L94.5674 90.2705C98.5137 88.0896 101.902 84.9413 104.742 80.8829L101.466 78.5891ZM92.649 86.7606C89.2418 88.6023 85.9733 89.8201 82.8398 90.4468L83.6242 94.3692C87.2107 93.6519 90.8542 92.2777 94.551 90.2794L92.649 86.7606ZM81.232 92.408V93.848H85.232V92.408H81.232ZM83.0358 95.8383C89.5392 96.4795 95.3671 98.5338 100.555 101.992L102.773 98.6639C97.0169 94.8262 90.5568 92.5605 83.4282 91.8576L83.0358 95.8383ZM100.555 101.992C105.254 105.125 107.872 110.862 107.872 119.912H111.872C111.872 110.146 109.018 102.827 102.773 98.6639L100.555 101.992ZM107.872 119.912C107.872 129.406 104.353 136.102 97.4418 140.388L99.5502 143.788C107.807 138.666 111.872 130.578 111.872 119.912H107.872ZM97.4575 140.379C90.2804 144.74 80.8339 147 68.976 147V151C81.3101 151 91.5436 148.652 99.5345 143.797L97.4575 140.379ZM68.976 147H2.88V151H68.976V147ZM4.88 149V125.384H0.88V149H4.88ZM58.176 86.2C61.2801 86.2 63.9732 85.3942 65.8301 83.4046L62.9059 80.6754C62.0748 81.5658 60.6399 82.2 58.176 82.2V86.2ZM65.8271 83.4079C67.7547 81.3517 68.528 78.4094 68.528 74.984H64.528C64.528 77.8946 63.8613 79.6563 62.9089 80.6721L65.8271 83.4079ZM68.528 74.984V69.8H64.528V74.984H68.528ZM68.528 69.8C68.528 66.3885 67.7605 63.4521 65.7822 61.4738L62.9538 64.3022C63.8555 65.2039 64.528 66.8755 64.528 69.8H68.528ZM65.8732 61.571C64.0253 59.4591 61.3169 58.584 58.176 58.584V62.584C60.6031 62.584 62.0227 63.2448 62.8629 64.205L65.8732 61.571ZM58.176 58.584H50.4V62.584H58.176V58.584ZM48.4 60.584V84.2H52.4V60.584H48.4ZM50.4 86.2H58.176V82.2H50.4V86.2ZM59.184 127.384C62.2881 127.384 64.9812 126.578 66.8381 124.589L63.9139 121.859C63.0828 122.75 61.6479 123.384 59.184 123.384V127.384ZM66.8351 124.592C68.7627 122.536 69.536 119.593 69.536 116.168H65.536C65.536 119.079 64.8693 120.84 63.9169 121.856L66.8351 124.592ZM69.536 116.168V109.832H65.536V116.168H69.536ZM69.536 109.832C69.536 106.421 68.7685 103.484 66.7902 101.506L63.9618 104.334C64.8635 105.236 65.536 106.907 65.536 109.832H69.536ZM66.8812 101.603C65.0333 99.4911 62.3249 98.616 59.184 98.616V102.616C61.6111 102.616 63.0307 103.277 63.8709 104.237L66.8812 101.603ZM59.184 98.616H50.4V102.616H59.184V98.616ZM48.4 100.616V125.384H52.4V100.616H48.4ZM50.4 127.384H59.184V123.384H50.4V127.384ZM181.208 67.496L180.774 69.4484L180.774 69.4484L181.208 67.496ZM185.528 68.936H187.528V67.6999L186.423 67.1471L185.528 68.936ZM185.528 96.44L184.762 98.2875L187.528 99.4344V96.44H185.528ZM158.888 98.744L160.281 100.179L160.281 100.179L158.888 98.744ZM153.992 125.384H151.992V127.384H153.992V125.384ZM166.952 125.384H168.952V123.384H166.952V125.384ZM166.952 149V151H168.952V149H166.952ZM114.536 149H112.536V151H114.536V149ZM114.536 125.384V123.384H112.536V125.384H114.536ZM120.872 125.384V127.384H122.872V125.384H120.872ZM120.872 92.552H122.872V90.552H120.872V92.552ZM114.536 92.552H112.536V94.552H114.536V92.552ZM114.536 68.936V66.936H112.536V68.936H114.536ZM153.992 68.936H155.992V66.936H153.992V68.936ZM153.992 79.448H151.992V86.0535L155.656 80.5574L153.992 79.448ZM163.208 70.232L164.251 71.9386L164.268 71.9281L164.285 71.9174L163.208 70.232ZM175.736 68.92C177.523 68.92 179.2 69.0986 180.774 69.4484L181.642 65.5436C179.76 65.1254 177.79 64.92 175.736 64.92V68.92ZM180.774 69.4484C182.398 69.8091 183.671 70.2435 184.634 70.7248L186.423 67.1471C185.081 66.4765 183.475 65.9509 181.642 65.5436L180.774 69.4484ZM183.528 68.936V96.44H187.528V68.936H183.528ZM186.294 94.5925C182.101 92.854 177.615 91.992 172.856 91.992V95.992C177.121 95.992 181.083 96.762 184.762 98.2875L186.294 94.5925ZM172.856 91.992C166.465 91.992 161.242 93.6719 157.495 97.3088L160.281 100.179C163.062 97.4801 167.152 95.992 172.856 95.992V91.992ZM157.495 97.3088C153.717 100.976 151.992 106.282 151.992 112.856H155.992C155.992 106.95 157.532 102.848 160.281 100.179L157.495 97.3088ZM151.992 112.856V125.384H155.992V112.856H151.992ZM153.992 127.384H166.952V123.384H153.992V127.384ZM164.952 125.384V149H168.952V125.384H164.952ZM166.952 147H114.536V151H166.952V147ZM116.536 149V125.384H112.536V149H116.536ZM114.536 127.384H120.872V123.384H114.536V127.384ZM122.872 125.384V92.552H118.872V125.384H122.872ZM120.872 90.552H114.536V94.552H120.872V90.552ZM116.536 92.552V68.936H112.536V92.552H116.536ZM114.536 70.936H153.992V66.936H114.536V70.936ZM151.992 68.936V79.448H155.992V68.936H151.992ZM155.656 80.5574C158.214 76.7204 161.087 73.8722 164.251 71.9386L162.165 68.5254C158.417 70.8158 155.146 74.1116 152.328 78.3386L155.656 80.5574ZM164.285 71.9174C167.362 69.9517 171.147 68.92 175.736 68.92V64.92C170.534 64.92 165.967 66.0963 162.131 68.5466L164.285 71.9174ZM201.13 140.36L199.762 141.819L199.772 141.828L201.13 140.36ZM201.13 77.72L202.488 79.1882L202.498 79.1791L201.13 77.72ZM265.21 77.864L263.823 79.3053L263.833 79.3145L265.21 77.864ZM265.066 140.36L266.424 141.828L266.434 141.819L265.066 140.36ZM239.29 123.224L237.831 121.856L237.828 121.859L239.29 123.224ZM239.29 94.856L237.785 96.173L237.828 96.2231L237.876 96.2702L239.29 94.856ZM226.762 94.856L225.303 93.4881L225.3 93.4914L226.762 94.856ZM226.762 123.224L225.257 124.541L225.3 124.591L225.348 124.638L226.762 123.224ZM233.098 149.016C219.812 149.016 209.697 145.56 202.488 138.892L199.772 141.828C207.922 149.368 219.119 153.016 233.098 153.016V149.016ZM202.498 138.901C195.334 132.185 191.61 122.32 191.61 108.968H187.61C187.61 123.072 191.566 134.135 199.762 141.819L202.498 138.901ZM191.61 108.968C191.61 95.6144 195.334 85.805 202.488 79.1882L199.772 76.2518C191.565 83.843 187.61 94.8656 187.61 108.968H191.61ZM202.498 79.1791C209.708 72.4197 219.819 68.92 233.098 68.92V64.92C219.113 64.92 207.912 68.6202 199.762 76.2609L202.498 79.1791ZM233.098 68.92C246.572 68.92 256.717 72.4691 263.823 79.3053L266.596 76.4227C258.534 68.6669 247.271 64.92 233.098 64.92V68.92ZM263.833 79.3145C270.911 86.0339 274.586 95.8105 274.586 108.968H278.586C278.586 95.0535 274.677 84.0941 266.587 76.4135L263.833 79.3145ZM274.586 108.968C274.586 122.32 270.862 132.185 263.698 138.901L266.434 141.819C274.63 134.135 278.586 123.072 278.586 108.968H274.586ZM263.708 138.892C256.498 145.56 246.383 149.016 233.098 149.016V153.016C247.076 153.016 258.273 149.368 266.424 141.828L263.708 138.892ZM233.098 127.384C236.202 127.384 238.895 126.578 240.752 124.589L237.828 121.859C236.997 122.75 235.562 123.384 233.098 123.384V127.384ZM240.749 124.592C242.676 122.536 243.45 119.593 243.45 116.168H239.45C239.45 119.079 238.783 120.84 237.831 121.856L240.749 124.592ZM243.45 116.168V101.768H239.45V116.168H243.45ZM243.45 101.768C243.45 98.3565 242.682 95.4201 240.704 93.4418L237.876 96.2702C238.777 97.1719 239.45 98.8435 239.45 101.768H243.45ZM240.795 93.539C238.947 91.4272 236.239 90.552 233.098 90.552V94.552C235.525 94.552 236.944 95.2128 237.785 96.173L240.795 93.539ZM233.098 90.552C229.947 90.552 227.232 91.4304 225.303 93.4881L228.221 96.2239C229.172 95.2096 230.68 94.552 233.098 94.552V90.552ZM225.3 93.4914C223.452 95.4712 222.746 98.3863 222.746 101.768H226.746C226.746 98.8137 227.384 97.1208 228.224 96.2206L225.3 93.4914ZM222.746 101.768V116.168H226.746V101.768H222.746ZM222.746 116.168C222.746 119.565 223.458 122.485 225.257 124.541L228.267 121.907C227.377 120.891 226.746 119.107 226.746 116.168H222.746ZM225.348 124.638C227.283 126.574 229.983 127.384 233.098 127.384V123.384C230.645 123.384 229.12 122.754 228.176 121.81L225.348 124.638ZM292.114 140.36L290.746 141.819L290.756 141.828L292.114 140.36ZM292.114 77.72L293.472 79.1882L293.482 79.1791L292.114 77.72ZM343.09 69.656L342.513 71.5708L342.513 71.5708L343.09 69.656ZM357.202 75.848H359.202V74.7944L358.333 74.1985L357.202 75.848ZM357.202 104.36V106.36H359.202V104.36H357.202ZM332.434 104.36H330.434V106.36H332.434V104.36ZM330.418 94.856L328.913 96.173L328.934 96.1972L328.956 96.2206L330.418 94.856ZM356.338 122.792H358.338V120.438L356.015 120.818L356.338 122.792ZM356.338 145.4L357.145 147.23L358.338 146.704V145.4H356.338ZM342.514 149.288L342.134 147.324L342.128 147.326L342.514 149.288ZM324.226 149.016C310.84 149.016 300.679 145.558 293.472 138.892L290.756 141.828C298.909 149.37 310.156 153.016 324.226 153.016V149.016ZM293.482 138.901C286.318 132.185 282.594 122.32 282.594 108.968H278.594C278.594 123.072 282.55 134.135 290.746 141.819L293.482 138.901ZM282.594 108.968C282.594 95.6144 286.319 85.805 293.472 79.1882L290.756 76.2518C282.549 83.843 278.594 94.8656 278.594 108.968H282.594ZM293.482 79.1791C300.692 72.4197 310.803 68.92 324.082 68.92V64.92C310.097 64.92 298.896 68.6202 290.746 76.2609L293.482 79.1791ZM324.082 68.92C330.52 68.92 336.661 69.806 342.513 71.5708L343.668 67.7412C337.423 65.858 330.892 64.92 324.082 64.92V68.92ZM342.513 71.5708C348.459 73.3643 352.947 75.3555 356.071 77.4975L358.333 74.1985C354.737 71.7325 349.817 69.5957 343.668 67.7412L342.513 71.5708ZM355.202 75.848V104.36H359.202V75.848H355.202ZM357.202 102.36H332.434V106.36H357.202V102.36ZM334.434 104.36V101.768H330.434V104.36H334.434ZM334.434 101.768C334.434 98.3863 333.728 95.4712 331.88 93.4914L328.956 96.2206C329.796 97.1208 330.434 98.8137 330.434 101.768H334.434ZM331.923 93.539C330.063 91.4134 327.294 90.552 324.082 90.552V94.552C326.631 94.552 328.085 95.2266 328.913 96.173L331.923 93.539ZM324.082 90.552C320.936 90.552 318.225 91.4289 316.336 93.513C314.481 95.5597 313.73 98.4337 313.73 101.768H317.73C317.73 98.9583 318.371 97.2243 319.3 96.199C320.195 95.2111 321.66 94.552 324.082 94.552V90.552ZM313.73 101.768V114.152H317.73V101.768H313.73ZM313.73 114.152C313.73 118.278 314.919 121.717 317.616 124.08C320.262 126.399 324.026 127.384 328.546 127.384V123.384C324.522 123.384 321.878 122.497 320.252 121.072C318.677 119.691 317.73 117.514 317.73 114.152H313.73ZM328.546 127.384C336.652 127.384 346.028 126.506 356.661 124.766L356.015 120.818C345.528 122.534 336.376 123.384 328.546 123.384V127.384ZM354.338 122.792V145.4H358.338V122.792H354.338ZM355.531 143.57C352.466 144.922 348.026 146.184 342.134 147.324L342.894 151.252C348.906 150.088 353.682 148.758 357.145 147.23L355.531 143.57ZM342.128 147.326C336.407 148.451 330.44 149.016 324.226 149.016V153.016C330.684 153.016 336.909 152.429 342.9 151.25L342.128 147.326ZM448.862 125.384L447.24 126.555L447.839 127.384H448.862V125.384ZM455.054 125.384H457.054V123.384H455.054V125.384ZM455.054 149V151H457.054V149H455.054ZM419.774 149L418.011 149.945L418.577 151H419.774V149ZM404.942 121.352L406.704 120.407L406.138 119.352H404.942V121.352ZM401.486 121.352V119.352H399.486V121.352H401.486ZM401.486 149V151H403.486V149H401.486ZM362.03 149H360.03V151H362.03V149ZM362.03 125.384V123.384H360.03V125.384H362.03ZM368.366 125.384V127.384H370.366V125.384H368.366ZM368.366 60.584H370.366V58.584H368.366V60.584ZM362.03 60.584H360.03V62.584H362.03V60.584ZM362.03 36.968V34.968H360.03V36.968H362.03ZM401.486 36.968H403.486V34.968H401.486V36.968ZM401.486 95.432H399.486V97.432H401.486V95.432ZM404.942 95.432V97.432H406.005L406.6 96.5497L404.942 95.432ZM422.798 68.936V66.936H421.734L421.139 67.8183L422.798 68.936ZM453.182 68.936H455.182V66.936H453.182V68.936ZM453.182 92.552V94.552H455.182V92.552H453.182ZM447.278 92.552V90.552H446.383L445.787 91.2184L447.278 92.552ZM435.038 106.232L433.547 104.898L432.474 106.098L433.416 107.403L435.038 106.232ZM448.862 127.384H455.054V123.384H448.862V127.384ZM453.054 125.384V149H457.054V125.384H453.054ZM455.054 147H419.774V151H455.054V147ZM421.536 148.055L406.704 120.407L403.179 122.297L418.011 149.945L421.536 148.055ZM404.942 119.352H401.486V123.352H404.942V119.352ZM399.486 121.352V149H403.486V121.352H399.486ZM401.486 147H362.03V151H401.486V147ZM364.03 149V125.384H360.03V149H364.03ZM362.03 127.384H368.366V123.384H362.03V127.384ZM370.366 125.384V60.584H366.366V125.384H370.366ZM368.366 58.584H362.03V62.584H368.366V58.584ZM364.03 60.584V36.968H360.03V60.584H364.03ZM362.03 38.968H401.486V34.968H362.03V38.968ZM399.486 36.968V95.432H403.486V36.968H399.486ZM401.486 97.432H404.942V93.432H401.486V97.432ZM406.6 96.5497L424.456 70.0537L421.139 67.8183L403.283 94.3143L406.6 96.5497ZM422.798 70.936H453.182V66.936H422.798V70.936ZM451.182 68.936V92.552H455.182V68.936H451.182ZM453.182 90.552H447.278V94.552H453.182V90.552ZM445.787 91.2184L433.547 104.898L436.528 107.566L448.768 93.8856L445.787 91.2184ZM433.416 107.403L447.24 126.555L450.483 124.213L436.659 105.061L433.416 107.403Z" fill="white"/>
<path d="M69.88 278.384H77.08V213.584H69.88V189.968H135.976C147.976 189.968 157.336 192.416 164.056 197.312C170.776 202.208 174.136 209.216 174.136 218.336C174.136 224 172.792 228.8 170.104 232.736C167.416 236.576 164.248 239.504 160.6 241.52C157.048 243.44 153.592 244.736 150.232 245.408V246.848C157.048 247.52 163.192 249.68 168.664 253.328C174.136 256.976 176.872 263.504 176.872 272.912C176.872 282.992 173.08 290.384 165.496 295.088C157.912 299.696 148.072 302 135.976 302H69.88V278.384ZM125.176 237.2C127.96 237.2 130.024 236.48 131.368 235.04C132.808 233.504 133.528 231.152 133.528 227.984V222.8C133.528 219.632 132.808 217.328 131.368 215.888C130.024 214.352 127.96 213.584 125.176 213.584H117.4V237.2H125.176ZM126.184 278.384C128.968 278.384 131.032 277.664 132.376 276.224C133.816 274.688 134.536 272.336 134.536 269.168V262.832C134.536 259.664 133.816 257.36 132.376 255.92C131.032 254.384 128.968 253.616 126.184 253.616H117.4V278.384H126.184ZM224.16 304.016C210.528 304.016 199.872 300.464 192.192 293.36C184.512 286.16 180.672 275.696 180.672 261.968C180.672 248.24 184.512 237.824 192.192 230.72C199.872 223.52 210.528 219.92 224.16 219.92C237.984 219.92 248.688 223.568 256.272 230.864C263.856 238.064 267.648 248.432 267.648 261.968C267.648 275.696 263.808 286.16 256.128 293.36C248.448 300.464 237.792 304.016 224.16 304.016ZM224.16 278.384C226.944 278.384 229.008 277.664 230.352 276.224C231.792 274.688 232.512 272.336 232.512 269.168V254.768C232.512 251.6 231.792 249.296 230.352 247.856C229.008 246.32 226.944 245.552 224.16 245.552C221.376 245.552 219.264 246.32 217.824 247.856C216.48 249.296 215.808 251.6 215.808 254.768V269.168C215.808 272.336 216.48 274.688 217.824 276.224C219.264 277.664 221.376 278.384 224.16 278.384ZM315.145 304.016C301.513 304.016 290.857 300.464 283.177 293.36C275.497 286.16 271.657 275.696 271.657 261.968C271.657 248.24 275.497 237.824 283.177 230.72C290.857 223.52 301.513 219.92 315.145 219.92C328.969 219.92 339.673 223.568 347.257 230.864C354.841 238.064 358.633 248.432 358.633 261.968C358.633 275.696 354.793 286.16 347.113 293.36C339.433 300.464 328.777 304.016 315.145 304.016ZM315.145 278.384C317.929 278.384 319.993 277.664 321.337 276.224C322.777 274.688 323.497 272.336 323.497 269.168V254.768C323.497 251.6 322.777 249.296 321.337 247.856C319.993 246.32 317.929 245.552 315.145 245.552C312.361 245.552 310.249 246.32 308.809 247.856C307.465 249.296 306.793 251.6 306.793 254.768V269.168C306.793 272.336 307.465 274.688 308.809 276.224C310.249 277.664 312.361 278.384 315.145 278.384ZM450.049 278.384H456.241V302H420.961L406.129 274.352H402.673V302H363.217V278.384H369.553V213.584H363.217V189.968H402.673V248.432H406.129L423.985 221.936H454.369V245.552H448.465L436.225 259.232L450.049 278.384Z" fill="#CC0000"/>
<path d="M69.88 278.384V276.384H67.88V278.384H69.88ZM77.08 278.384V280.384H79.08V278.384H77.08ZM77.08 213.584H79.08V211.584H77.08V213.584ZM69.88 213.584H67.88V215.584H69.88V213.584ZM69.88 189.968V187.968H67.88V189.968H69.88ZM170.104 232.736L171.742 233.883L171.749 233.873L171.756 233.864L170.104 232.736ZM160.6 241.52L161.551 243.279L161.559 243.275L161.567 243.27L160.6 241.52ZM150.232 245.408L149.84 243.447L148.232 243.768V245.408H150.232ZM150.232 246.848H148.232V248.661L150.036 248.838L150.232 246.848ZM168.664 253.328L169.773 251.664L169.773 251.664L168.664 253.328ZM165.496 295.088L166.535 296.797L166.542 296.792L166.55 296.788L165.496 295.088ZM69.88 302H67.88V304H69.88V302ZM131.368 235.04L129.909 233.672L129.906 233.675L131.368 235.04ZM131.368 215.888L129.863 217.205L129.907 217.255L129.954 217.302L131.368 215.888ZM117.4 213.584V211.584H115.4V213.584H117.4ZM117.4 237.2H115.4V239.2H117.4V237.2ZM132.376 276.224L130.917 274.856L130.914 274.859L132.376 276.224ZM132.376 255.92L130.871 257.237L130.915 257.287L130.962 257.334L132.376 255.92ZM117.4 253.616V251.616H115.4V253.616H117.4ZM117.4 278.384H115.4V280.384H117.4V278.384ZM69.88 280.384H77.08V276.384H69.88V280.384ZM79.08 278.384V213.584H75.08V278.384H79.08ZM77.08 211.584H69.88V215.584H77.08V211.584ZM71.88 213.584V189.968H67.88V213.584H71.88ZM69.88 191.968H135.976V187.968H69.88V191.968ZM135.976 191.968C147.733 191.968 156.622 194.37 162.878 198.928L165.234 195.696C158.05 190.462 148.219 187.968 135.976 187.968V191.968ZM162.878 198.928C169.026 203.408 172.136 209.783 172.136 218.336H176.136C176.136 208.649 172.526 201.008 165.234 195.696L162.878 198.928ZM172.136 218.336C172.136 223.675 170.873 228.063 168.452 231.608L171.756 233.864C174.711 229.537 176.136 224.325 176.136 218.336H172.136ZM168.466 231.589C165.93 235.211 162.982 237.918 159.633 239.77L161.567 243.27C165.514 241.09 168.902 237.941 171.742 233.883L168.466 231.589ZM159.649 239.761C156.242 241.602 152.973 242.82 149.84 243.447L150.624 247.369C154.211 246.652 157.854 245.278 161.551 243.279L159.649 239.761ZM148.232 245.408V246.848H152.232V245.408H148.232ZM150.036 248.838C156.539 249.48 162.367 251.534 167.555 254.992L169.773 251.664C164.017 247.826 157.557 245.56 150.428 244.858L150.036 248.838ZM167.555 254.992C172.254 258.125 174.872 263.862 174.872 272.912H178.872C178.872 263.146 176.018 255.827 169.773 251.664L167.555 254.992ZM174.872 272.912C174.872 282.406 171.353 289.102 164.442 293.388L166.55 296.788C174.807 291.666 178.872 283.578 178.872 272.912H174.872ZM164.457 293.379C157.28 297.74 147.834 300 135.976 300V304C148.31 304 158.544 301.652 166.535 296.797L164.457 293.379ZM135.976 300H69.88V304H135.976V300ZM71.88 302V278.384H67.88V302H71.88ZM125.176 239.2C128.28 239.2 130.973 238.394 132.83 236.405L129.906 233.675C129.075 234.566 127.64 235.2 125.176 235.2V239.2ZM132.827 236.408C134.755 234.352 135.528 231.409 135.528 227.984H131.528C131.528 230.895 130.861 232.656 129.909 233.672L132.827 236.408ZM135.528 227.984V222.8H131.528V227.984H135.528ZM135.528 222.8C135.528 219.389 134.76 216.452 132.782 214.474L129.954 217.302C130.856 218.204 131.528 219.875 131.528 222.8H135.528ZM132.873 214.571C131.025 212.459 128.317 211.584 125.176 211.584V215.584C127.603 215.584 129.023 216.245 129.863 217.205L132.873 214.571ZM125.176 211.584H117.4V215.584H125.176V211.584ZM115.4 213.584V237.2H119.4V213.584H115.4ZM117.4 239.2H125.176V235.2H117.4V239.2ZM126.184 280.384C129.288 280.384 131.981 279.578 133.838 277.589L130.914 274.859C130.083 275.75 128.648 276.384 126.184 276.384V280.384ZM133.835 277.592C135.763 275.536 136.536 272.593 136.536 269.168H132.536C132.536 272.079 131.869 273.84 130.917 274.856L133.835 277.592ZM136.536 269.168V262.832H132.536V269.168H136.536ZM136.536 262.832C136.536 259.421 135.768 256.484 133.79 254.506L130.962 257.334C131.864 258.236 132.536 259.907 132.536 262.832H136.536ZM133.881 254.603C132.033 252.491 129.325 251.616 126.184 251.616V255.616C128.611 255.616 130.031 256.277 130.871 257.237L133.881 254.603ZM126.184 251.616H117.4V255.616H126.184V251.616ZM115.4 253.616V278.384H119.4V253.616H115.4ZM117.4 280.384H126.184V276.384H117.4V280.384ZM192.192 293.36L190.824 294.819L190.834 294.828L192.192 293.36ZM192.192 230.72L193.55 232.188L193.56 232.179L192.192 230.72ZM256.272 230.864L254.886 232.305L254.895 232.314L256.272 230.864ZM256.128 293.36L257.486 294.828L257.496 294.819L256.128 293.36ZM230.352 276.224L228.893 274.856L228.89 274.859L230.352 276.224ZM230.352 247.856L228.847 249.173L228.891 249.223L228.938 249.27L230.352 247.856ZM217.824 247.856L216.365 246.488L216.362 246.491L217.824 247.856ZM217.824 276.224L216.319 277.541L216.363 277.591L216.41 277.638L217.824 276.224ZM224.16 302.016C210.875 302.016 200.76 298.56 193.55 291.892L190.834 294.828C198.985 302.368 210.182 306.016 224.16 306.016V302.016ZM193.56 291.901C186.396 285.185 182.672 275.32 182.672 261.968H178.672C178.672 276.072 182.628 287.135 190.824 294.819L193.56 291.901ZM182.672 261.968C182.672 248.614 186.397 238.805 193.55 232.188L190.834 229.252C182.628 236.843 178.672 247.866 178.672 261.968H182.672ZM193.56 232.179C200.77 225.42 210.881 221.92 224.16 221.92V217.92C210.175 217.92 198.974 221.62 190.824 229.261L193.56 232.179ZM224.16 221.92C237.635 221.92 247.78 225.469 254.886 232.305L257.659 229.423C249.597 221.667 238.334 217.92 224.16 217.92V221.92ZM254.895 232.314C261.973 239.034 265.648 248.811 265.648 261.968H269.648C269.648 248.053 265.739 237.094 257.649 229.414L254.895 232.314ZM265.648 261.968C265.648 275.32 261.924 285.185 254.76 291.901L257.496 294.819C265.692 287.135 269.648 276.072 269.648 261.968H265.648ZM254.77 291.892C247.561 298.56 237.446 302.016 224.16 302.016V306.016C238.139 306.016 249.336 302.368 257.486 294.828L254.77 291.892ZM224.16 280.384C227.264 280.384 229.957 279.578 231.814 277.589L228.89 274.859C228.059 275.75 226.624 276.384 224.16 276.384V280.384ZM231.811 277.592C233.739 275.536 234.512 272.593 234.512 269.168H230.512C230.512 272.079 229.846 273.84 228.893 274.856L231.811 277.592ZM234.512 269.168V254.768H230.512V269.168H234.512ZM234.512 254.768C234.512 251.357 233.745 248.42 231.766 246.442L228.938 249.27C229.84 250.172 230.512 251.843 230.512 254.768H234.512ZM231.857 246.539C230.01 244.427 227.301 243.552 224.16 243.552V247.552C226.587 247.552 228.007 248.213 228.847 249.173L231.857 246.539ZM224.16 243.552C221.01 243.552 218.294 244.43 216.365 246.488L219.283 249.224C220.234 248.21 221.743 247.552 224.16 247.552V243.552ZM216.362 246.491C214.514 248.471 213.808 251.386 213.808 254.768H217.808C217.808 251.814 218.446 250.121 219.286 249.221L216.362 246.491ZM213.808 254.768V269.168H217.808V254.768H213.808ZM213.808 269.168C213.808 272.565 214.521 275.485 216.319 277.541L219.329 274.907C218.44 273.891 217.808 272.107 217.808 269.168H213.808ZM216.41 277.638C218.346 279.574 221.045 280.384 224.16 280.384V276.384C221.707 276.384 220.183 275.754 219.238 274.81L216.41 277.638ZM283.177 293.36L281.809 294.819L281.819 294.828L283.177 293.36ZM283.177 230.72L284.535 232.188L284.545 232.179L283.177 230.72ZM347.257 230.864L345.87 232.305L345.88 232.314L347.257 230.864ZM347.113 293.36L348.471 294.828L348.481 294.819L347.113 293.36ZM321.337 276.224L319.878 274.856L319.875 274.859L321.337 276.224ZM321.337 247.856L319.831 249.173L319.875 249.223L319.922 249.27L321.337 247.856ZM308.809 247.856L307.35 246.488L307.347 246.491L308.809 247.856ZM308.809 276.224L307.303 277.541L307.347 277.591L307.394 277.638L308.809 276.224ZM315.145 302.016C301.859 302.016 291.744 298.56 284.535 291.892L281.819 294.828C289.969 302.368 301.166 306.016 315.145 306.016V302.016ZM284.545 291.901C277.381 285.185 273.657 275.32 273.657 261.968H269.657C269.657 276.072 273.612 287.135 281.809 294.819L284.545 291.901ZM273.657 261.968C273.657 248.614 277.381 238.805 284.535 232.188L281.819 229.252C273.612 236.843 269.657 247.866 269.657 261.968H273.657ZM284.545 232.179C291.754 225.42 301.866 221.92 315.145 221.92V217.92C301.159 217.92 289.959 221.62 281.809 229.261L284.545 232.179ZM315.145 221.92C328.619 221.92 338.764 225.469 345.87 232.305L348.643 229.423C340.581 221.667 329.318 217.92 315.145 217.92V221.92ZM345.88 232.314C352.957 239.034 356.633 248.811 356.633 261.968H360.633C360.633 248.053 356.724 237.094 348.634 229.414L345.88 232.314ZM356.633 261.968C356.633 275.32 352.908 285.185 345.745 291.901L348.481 294.819C356.677 287.135 360.633 276.072 360.633 261.968H356.633ZM345.755 291.892C338.545 298.56 328.43 302.016 315.145 302.016V306.016C329.123 306.016 340.32 302.368 348.471 294.828L345.755 291.892ZM315.145 280.384C318.249 280.384 320.942 279.578 322.799 277.589L319.875 274.859C319.043 275.75 317.609 276.384 315.145 276.384V280.384ZM322.796 277.592C324.723 275.536 325.497 272.593 325.497 269.168H321.497C321.497 272.079 320.83 273.84 319.878 274.856L322.796 277.592ZM325.497 269.168V254.768H321.497V269.168H325.497ZM325.497 254.768C325.497 251.357 324.729 248.42 322.751 246.442L319.922 249.27C320.824 250.172 321.497 251.843 321.497 254.768H325.497ZM322.842 246.539C320.994 244.427 318.286 243.552 315.145 243.552V247.552C317.572 247.552 318.991 248.213 319.831 249.173L322.842 246.539ZM315.145 243.552C311.994 243.552 309.279 244.43 307.35 246.488L310.268 249.224C311.219 248.21 312.727 247.552 315.145 247.552V243.552ZM307.347 246.491C305.499 248.471 304.793 251.386 304.793 254.768H308.793C308.793 251.814 309.431 250.121 310.271 249.221L307.347 246.491ZM304.793 254.768V269.168H308.793V254.768H304.793ZM304.793 269.168C304.793 272.565 305.505 275.485 307.303 277.541L310.314 274.907C309.424 273.891 308.793 272.107 308.793 269.168H304.793ZM307.394 277.638C309.33 279.574 312.03 280.384 315.145 280.384V276.384C312.692 276.384 311.167 275.754 310.223 274.81L307.394 277.638ZM450.049 278.384L448.427 279.555L449.026 280.384H450.049V278.384ZM456.241 278.384H458.241V276.384H456.241V278.384ZM456.241 302V304H458.241V302H456.241ZM420.961 302L419.199 302.945L419.764 304H420.961V302ZM406.129 274.352L407.891 273.407L407.326 272.352H406.129V274.352ZM402.673 274.352V272.352H400.673V274.352H402.673ZM402.673 302V304H404.673V302H402.673ZM363.217 302H361.217V304H363.217V302ZM363.217 278.384V276.384H361.217V278.384H363.217ZM369.553 278.384V280.384H371.553V278.384H369.553ZM369.553 213.584H371.553V211.584H369.553V213.584ZM363.217 213.584H361.217V215.584H363.217V213.584ZM363.217 189.968V187.968H361.217V189.968H363.217ZM402.673 189.968H404.673V187.968H402.673V189.968ZM402.673 248.432H400.673V250.432H402.673V248.432ZM406.129 248.432V250.432H407.193L407.788 249.55L406.129 248.432ZM423.985 221.936V219.936H422.921L422.326 220.818L423.985 221.936ZM454.369 221.936H456.369V219.936H454.369V221.936ZM454.369 245.552V247.552H456.369V245.552H454.369ZM448.465 245.552V243.552H447.571L446.975 244.218L448.465 245.552ZM436.225 259.232L434.735 257.898L433.661 259.098L434.603 260.403L436.225 259.232ZM450.049 280.384H456.241V276.384H450.049V280.384ZM454.241 278.384V302H458.241V278.384H454.241ZM456.241 300H420.961V304H456.241V300ZM422.723 301.055L407.891 273.407L404.367 275.297L419.199 302.945L422.723 301.055ZM406.129 272.352H402.673V276.352H406.129V272.352ZM400.673 274.352V302H404.673V274.352H400.673ZM402.673 300H363.217V304H402.673V300ZM365.217 302V278.384H361.217V302H365.217ZM363.217 280.384H369.553V276.384H363.217V280.384ZM371.553 278.384V213.584H367.553V278.384H371.553ZM369.553 211.584H363.217V215.584H369.553V211.584ZM365.217 213.584V189.968H361.217V213.584H365.217ZM363.217 191.968H402.673V187.968H363.217V191.968ZM400.673 189.968V248.432H404.673V189.968H400.673ZM402.673 250.432H406.129V246.432H402.673V250.432ZM407.788 249.55L425.644 223.054L422.326 220.818L404.47 247.314L407.788 249.55ZM423.985 223.936H454.369V219.936H423.985V223.936ZM452.369 221.936V245.552H456.369V221.936H452.369ZM454.369 243.552H448.465V247.552H454.369V243.552ZM446.975 244.218L434.735 257.898L437.715 260.566L449.955 246.886L446.975 244.218ZM434.603 260.403L448.427 279.555L451.671 277.213L437.847 258.061L434.603 260.403Z" fill="white"/>
<path d="M521.909 229.069C510.361 229.068 501 240.534 501 254.677C501 268.82 509.475 278.513 521.909 280.285L677.426 314.447L817.152 235.812" stroke="#333333" stroke-width="15" stroke-linecap="round" stroke-linejoin="round"/>
<path d="M521.909 177.852C510.361 177.852 501 189.317 501 203.46C501 217.603 509.475 227.297 521.909 229.069L677.426 263.23L817.152 184.595" stroke="#333333" stroke-width="15" stroke-linecap="round" stroke-linejoin="round"/>
<path d="M521.909 126.635C510.361 126.635 501 138.1 501 152.243C501 166.387 509.475 176.08 521.909 177.852L597.769 194.516M643.169 204.489L677.426 212.014L817.152 133.378" stroke="#333333" stroke-width="15" stroke-linecap="round" stroke-linejoin="round"/>
<path d="M661.637 48L518.144 126.635L677.426 160.796L817.152 82.1613L661.637 48Z" fill="#333333" stroke="#333333" stroke-width="15" stroke-linecap="round" stroke-linejoin="round"/>
<path d="M665.243 57.9919L629.228 78.3757L687.066 91.0805L723.08 70.6968L665.243 57.9919Z" fill="#CC0000" stroke="#333333" stroke-linecap="round" stroke-linejoin="round"/>
<path fill-rule="evenodd" clip-rule="evenodd" d="M605 171V236.34L619.705 227.287L636 245V176.117L605 171Z" fill="#CC0000"/>
<path d="M2.88 125.384H10.08V60.584H2.88V36.968H68.976C80.976 36.968 90.336 39.416 97.056 44.312C103.776 49.208 107.136 56.216 107.136 65.336C107.136 71 105.792 75.8 103.104 79.736C100.416 83.576 97.248 86.504 93.6 88.52C90.048 90.44 86.592 91.736 83.232 92.408V93.848C90.048 94.52 96.192 96.68 101.664 100.328C107.136 103.976 109.872 110.504 109.872 119.912C109.872 129.992 106.08 137.384 98.496 142.088C90.912 146.696 81.072 149 68.976 149H2.88V125.384ZM58.176 84.2C60.96 84.2 63.024 83.48 64.368 82.04C65.808 80.504 66.528 78.152 66.528 74.984V69.8C66.528 66.632 65.808 64.328 64.368 62.888C63.024 61.352 60.96 60.584 58.176 60.584H50.4V84.2H58.176ZM59.184 125.384C61.968 125.384 64.032 124.664 65.376 123.224C66.816 121.688 67.536 119.336 67.536 116.168V109.832C67.536 106.664 66.816 104.36 65.376 102.92C64.032 101.384 61.968 100.616 59.184 100.616H50.4V125.384H59.184ZM175.736 66.92C177.656 66.92 179.48 67.112 181.208 67.496C182.936 67.88 184.376 68.36 185.528 68.936V96.44C181.592 94.808 177.368 93.992 172.856 93.992C166.808 93.992 162.152 95.576 158.888 98.744C155.624 101.912 153.992 106.616 153.992 112.856V125.384H166.952V149H114.536V125.384H120.872V92.552H114.536V68.936H153.992V79.448C156.68 75.416 159.752 72.344 163.208 70.232C166.664 68.024 170.84 66.92 175.736 66.92ZM233.098 151.016C219.466 151.016 208.81 147.464 201.13 140.36C193.45 133.16 189.61 122.696 189.61 108.968C189.61 95.24 193.45 84.824 201.13 77.72C208.81 70.52 219.466 66.92 233.098 66.92C246.922 66.92 257.626 70.568 265.21 77.864C272.794 85.064 276.586 95.432 276.586 108.968C276.586 122.696 272.746 133.16 265.066 140.36C257.386 147.464 246.73 151.016 233.098 151.016ZM233.098 125.384C235.882 125.384 237.946 124.664 239.29 123.224C240.73 121.688 241.45 119.336 241.45 116.168V101.768C241.45 98.6 240.73 96.296 239.29 94.856C237.946 93.32 235.882 92.552 233.098 92.552C230.314 92.552 228.202 93.32 226.762 94.856C225.418 96.296 224.746 98.6 224.746 101.768V116.168C224.746 119.336 225.418 121.688 226.762 123.224C228.202 124.664 230.314 125.384 233.098 125.384ZM324.226 151.016C310.498 151.016 299.794 147.464 292.114 140.36C284.434 133.16 280.594 122.696 280.594 108.968C280.594 95.24 284.434 84.824 292.114 77.72C299.794 70.52 310.45 66.92 324.082 66.92C330.706 66.92 337.042 67.832 343.09 69.656C349.138 71.48 353.842 73.544 357.202 75.848V104.36H332.434V101.768C332.434 98.6 331.762 96.296 330.418 94.856C329.074 93.32 326.962 92.552 324.082 92.552C318.514 92.552 315.73 95.624 315.73 101.768V114.152C315.73 121.64 320.002 125.384 328.546 125.384C336.514 125.384 345.778 124.52 356.338 122.792V145.4C353.074 146.84 348.466 148.136 342.514 149.288C336.658 150.44 330.562 151.016 324.226 151.016ZM448.862 125.384H455.054V149H419.774L404.942 121.352H401.486V149H362.03V125.384H368.366V60.584H362.03V36.968H401.486V95.432H404.942L422.798 68.936H453.182V92.552H447.278L435.038 106.232L448.862 125.384Z" fill="#CC0000"/>
<path d="M69.88 278.384H77.08V213.584H69.88V189.968H135.976C147.976 189.968 157.336 192.416 164.056 197.312C170.776 202.208 174.136 209.216 174.136 218.336C174.136 224 172.792 228.8 170.104 232.736C167.416 236.576 164.248 239.504 160.6 241.52C157.048 243.44 153.592 244.736 150.232 245.408V246.848C157.048 247.52 163.192 249.68 168.664 253.328C174.136 256.976 176.872 263.504 176.872 272.912C176.872 282.992 173.08 290.384 165.496 295.088C157.912 299.696 148.072 302 135.976 302H69.88V278.384ZM125.176 237.2C127.96 237.2 130.024 236.48 131.368 235.04C132.808 233.504 133.528 231.152 133.528 227.984V222.8C133.528 219.632 132.808 217.328 131.368 215.888C130.024 214.352 127.96 213.584 125.176 213.584H117.4V237.2H125.176ZM126.184 278.384C128.968 278.384 131.032 277.664 132.376 276.224C133.816 274.688 134.536 272.336 134.536 269.168V262.832C134.536 259.664 133.816 257.36 132.376 255.92C131.032 254.384 128.968 253.616 126.184 253.616H117.4V278.384H126.184ZM224.16 304.016C210.528 304.016 199.872 300.464 192.192 293.36C184.512 286.16 180.672 275.696 180.672 261.968C180.672 248.24 184.512 237.824 192.192 230.72C199.872 223.52 210.528 219.92 224.16 219.92C237.984 219.92 248.688 223.568 256.272 230.864C263.856 238.064 267.648 248.432 267.648 261.968C267.648 275.696 263.808 286.16 256.128 293.36C248.448 300.464 237.792 304.016 224.16 304.016ZM224.16 278.384C226.944 278.384 229.008 277.664 230.352 276.224C231.792 274.688 232.512 272.336 232.512 269.168V254.768C232.512 251.6 231.792 249.296 230.352 247.856C229.008 246.32 226.944 245.552 224.16 245.552C221.376 245.552 219.264 246.32 217.824 247.856C216.48 249.296 215.808 251.6 215.808 254.768V269.168C215.808 272.336 216.48 274.688 217.824 276.224C219.264 277.664 221.376 278.384 224.16 278.384ZM315.145 304.016C301.513 304.016 290.857 300.464 283.177 293.36C275.497 286.16 271.657 275.696 271.657 261.968C271.657 248.24 275.497 237.824 283.177 230.72C290.857 223.52 301.513 219.92 315.145 219.92C328.969 219.92 339.673 223.568 347.257 230.864C354.841 238.064 358.633 248.432 358.633 261.968C358.633 275.696 354.793 286.16 347.113 293.36C339.433 300.464 328.777 304.016 315.145 304.016ZM315.145 278.384C317.929 278.384 319.993 277.664 321.337 276.224C322.777 274.688 323.497 272.336 323.497 269.168V254.768C323.497 251.6 322.777 249.296 321.337 247.856C319.993 246.32 317.929 245.552 315.145 245.552C312.361 245.552 310.249 246.32 308.809 247.856C307.465 249.296 306.793 251.6 306.793 254.768V269.168C306.793 272.336 307.465 274.688 308.809 276.224C310.249 277.664 312.361 278.384 315.145 278.384ZM450.049 278.384H456.241V302H420.961L406.129 274.352H402.673V302H363.217V278.384H369.553V213.584H363.217V189.968H402.673V248.432H406.129L423.985 221.936H454.369V245.552H448.465L436.225 259.232L450.049 278.384Z" fill="#CC0000"/>
</svg>
