<svg width="320" height="320" viewBox="0 0 320 320" fill="none" xmlns="http://www.w3.org/2000/svg">
<path d="M160 314.4C245.604 314.4 315 245.004 315 159.4C315 73.7958 245.604 4.3999 160 4.3999C74.3959 4.3999 5 73.7958 5 159.4C5 245.004 74.3959 314.4 160 314.4Z" fill="white"/>
<path d="M160.1 287.9C230.792 287.9 288.1 230.592 288.1 159.9C288.1 89.2075 230.792 31.8999 160.1 31.8999C89.4075 31.8999 32.1 89.2075 32.1 159.9C32.1 230.592 89.4075 287.9 160.1 287.9Z" fill="black"/>
<path d="M47.253 47.2542L47.2535 47.2536C77.3601 17.1471 117.433 0.5 160 0.5C202.568 0.5 242.64 17.0475 272.746 47.253L272.746 47.2536C274.846 49.3531 274.858 52.8392 272.743 55.0503C270.643 57.1459 267.159 57.1564 264.95 55.0426C236.856 26.9509 199.63 11.6 159.9 11.6C120.167 11.6 82.9404 27.0528 54.8471 55.0458C26.7519 83.0407 11.4 120.369 11.4 160.1C11.4 199.833 26.8528 237.06 54.8458 265.153L54.8464 265.154C112.742 323.049 206.958 323.049 264.854 265.154C266.953 263.054 270.439 263.042 272.65 265.157C274.746 267.257 274.756 270.741 272.642 272.951C241.741 303.85 200.872 319.4 160 319.4C119.127 319.4 78.3559 303.849 47.2535 272.746C17.147 242.64 0.5 202.567 0.5 160C0.5 117.432 17.0475 77.3599 47.253 47.2542Z" fill="black" stroke="white"/>
<path d="M309.621 197.215L309.614 197.213L309.607 197.211C306.67 196.569 304.749 193.631 305.388 190.707L305.389 190.707L305.39 190.698C306.291 186.193 307.094 181.678 307.597 177.158C307.966 174.121 310.726 171.932 313.638 172.296L313.64 172.296C316.677 172.664 318.868 175.425 318.504 178.338L318.504 178.339C317.905 183.226 317.108 188.112 316.111 192.898L316.11 192.899C315.56 195.558 313.272 197.3 310.7 197.3C310.291 197.3 309.952 197.298 309.621 197.215Z" fill="black" stroke="white"/>
<path d="M308.199 149.769L308.199 149.766C307.195 134.916 303.985 120.467 298.667 106.621C296.56 101.102 294.051 95.5825 291.24 90.3629L291.24 90.3629L291.238 90.3584C289.778 87.7125 290.872 84.3188 293.53 82.9441L293.53 82.9442L293.542 82.9377C296.187 81.4779 299.581 82.5717 300.956 85.2297L300.956 85.2297L300.959 85.2361C303.949 90.8174 306.641 96.6982 308.933 102.679C314.615 117.533 318.104 133.083 319.201 149.032C319.383 152.059 317.093 154.709 314.085 154.9H313.7C310.854 154.9 308.382 152.696 308.199 149.769Z" fill="black" stroke="white"/>
<path d="M147.4 250.907C147.5 235.507 147.6 220.107 147.7 204.707C147.7 196.507 147.5 188.307 147.8 180.107C147.9 176.007 146.9 174.207 142.4 174.607C136.9 175.007 131.3 174.607 125.7 174.707C123 174.807 121.7 174.107 121.7 171.107C121.9 162.907 121.8 154.707 121.7 146.507C121.7 143.707 122.7 142.607 125.5 142.607C132.7 142.707 139.8 142.607 147.6 142.607C147.6 138.007 147.5 133.807 147.6 129.607C147.8 122.907 147.2 116.007 148.6 109.507C152 93.1073 165.9 82.2073 182.7 81.8073C190.5 81.6073 198.3 81.9073 206 81.7073C209 81.6073 210.2 82.5073 210.1 85.7073C209.9 92.9073 209.9 100.107 210.1 107.307C210.2 110.207 209 111.207 206.2 111.107C201.1 111.007 195.9 111.007 190.8 111.107C183.7 111.207 180 114.907 179.9 122.007C179.8 127.607 180 133.207 179.8 138.707C179.7 141.807 180.9 142.707 183.9 142.707C192.1 142.507 200.3 142.607 209.5 142.607C208.1 153.507 206.8 163.807 205.4 174.607C197 174.607 188.8 174.607 179.9 174.607C179.9 200.407 179.9 225.707 179.9 251.007C169.1 250.907 158.2 250.907 147.4 250.907Z" fill="#939393" fill-opacity="0.3"/>
<path d="M134.7 238.207C134.8 222.807 134.9 207.407 135 192.007C135 183.807 134.8 175.607 135.1 167.407C135.2 163.307 134.2 161.507 129.7 161.907C124.2 162.307 118.6 161.907 113 162.007C110.3 162.107 109 161.407 109 158.407C109.2 150.207 109.1 142.007 109 133.807C109 131.007 110 129.907 112.8 129.907C120 130.007 127.1 129.907 134.9 129.907C134.9 125.307 134.8 121.107 134.9 116.907C135.1 110.207 134.5 103.307 135.9 96.8073C139.3 80.4073 153.2 69.5074 170 69.1074C177.8 68.9074 185.6 69.2073 193.3 69.0073C196.3 68.9073 197.5 69.8073 197.4 73.0073C197.2 80.2073 197.2 87.4074 197.4 94.6074C197.5 97.5074 196.3 98.5073 193.5 98.4073C188.4 98.3073 183.2 98.3073 178.1 98.4073C171 98.5073 167.3 102.207 167.2 109.307C167.1 114.907 167.3 120.507 167.1 126.007C167 129.107 168.2 130.007 171.2 130.007C179.4 129.807 187.6 129.907 196.8 129.907C195.4 140.807 194.1 151.107 192.7 161.907C184.3 161.907 176.1 161.907 167.2 161.907C167.2 187.707 167.2 213.007 167.2 238.307C156.4 238.207 145.6 238.207 134.7 238.207Z" fill="white"/>
</svg>
