<svg width="320" height="320" viewBox="0 0 320 320" fill="none" xmlns="http://www.w3.org/2000/svg">
<path d="M160 314.4C245.604 314.4 315 245.004 315 159.4C315 73.7959 245.604 4.40002 160 4.40002C74.3959 4.40002 5 73.7959 5 159.4C5 245.004 74.3959 314.4 160 314.4Z" fill="white"/>
<path d="M160.1 287.9C230.792 287.9 288.1 230.592 288.1 159.9C288.1 89.2076 230.792 31.9 160.1 31.9C89.4075 31.9 32.1 89.2076 32.1 159.9C32.1 230.592 89.4075 287.9 160.1 287.9Z" fill="#E80000"/>
<path d="M160 319.9C119 319.9 78.1 304.3 46.9 273.1C16.7 242.9 0 202.7 0 160C0 117.3 16.6 77.1 46.9 46.9C77.1 16.7 117.3 0 160 0C202.7 0 242.9 16.6 273.1 46.9C275.4 49.2 275.4 53 273.1 55.4C270.8 57.7 267 57.7 264.6 55.4C236.6 27.4 199.5 12.1 159.9 12.1C120.3 12.1 83.2 27.5 55.2 55.4C27.2 83.3 11.9 120.5 11.9 160.1C11.9 199.7 27.3 236.8 55.2 264.8C112.9 322.5 206.8 322.5 264.5 264.8C266.8 262.5 270.6 262.5 273 264.8C275.3 267.1 275.3 270.9 273 273.3C242 304.3 201 319.9 160 319.9Z" fill="#E80000"/>
<path d="M310.7 197.8C310.3 197.8 309.9 197.8 309.5 197.7C306.3 197 304.2 193.8 304.9 190.6C305.8 186.1 306.6 181.6 307.1 177.1C307.5 173.8 310.5 171.4 313.7 171.8C317 172.2 319.4 175.2 319 178.4C318.4 183.3 317.6 188.2 316.6 193C316 195.9 313.5 197.8 310.7 197.8Z" fill="#E80000"/>
<path d="M313.7 155.4C310.6 155.4 307.9 153 307.7 149.8C306.7 135 303.5 120.6 298.2 106.8C296.1 101.3 293.6 95.8 290.8 90.6C289.2 87.7 290.4 83.9999 293.3 82.4999C296.2 80.8999 299.9 82.0999 301.4 84.9999C304.4 90.5999 307.1 96.4999 309.4 102.5C315.1 117.4 318.6 133 319.7 149C319.9 152.3 317.4 155.2 314.1 155.4C314 155.4 313.8 155.4 313.7 155.4Z" fill="#E80000"/>
<path d="M147.4 249.907C147.5 234.507 147.6 219.107 147.7 203.707C147.7 195.507 147.5 187.307 147.8 179.107C147.9 175.007 146.9 173.207 142.4 173.607C136.9 174.007 131.3 173.607 125.7 173.707C123 173.807 121.7 173.107 121.7 170.107C121.9 161.907 121.8 153.707 121.7 145.507C121.7 142.707 122.7 141.607 125.5 141.607C132.7 141.707 139.8 141.607 147.6 141.607C147.6 137.007 147.5 132.807 147.6 128.607C147.8 121.907 147.2 115.007 148.6 108.507C152 92.1073 165.9 81.2073 182.7 80.8073C190.5 80.6073 198.3 80.9073 206 80.7073C209 80.6073 210.2 81.5073 210.1 84.7073C209.9 91.9073 209.9 99.1073 210.1 106.307C210.2 109.207 209 110.207 206.2 110.107C201.1 110.007 195.9 110.007 190.8 110.107C183.7 110.207 180 113.907 179.9 121.007C179.8 126.607 180 132.207 179.8 137.707C179.7 140.807 180.9 141.707 183.9 141.707C192.1 141.507 200.3 141.607 209.5 141.607C208.1 152.507 206.8 162.807 205.4 173.607C197 173.607 188.8 173.607 179.9 173.607C179.9 199.407 179.9 224.707 179.9 250.007C169.1 249.907 158.2 249.907 147.4 249.907Z" fill="#A50404"/>
<path d="M134.7 237.207C134.8 221.807 134.9 206.407 135 191.007C135 182.807 134.8 174.607 135.1 166.407C135.2 162.307 134.2 160.507 129.7 160.907C124.2 161.307 118.6 160.907 113 161.007C110.3 161.107 109 160.407 109 157.407C109.2 149.207 109.1 141.007 109 132.807C109 130.007 110 128.907 112.8 128.907C120 129.007 127.1 128.907 134.9 128.907C134.9 124.307 134.8 120.107 134.9 115.907C135.1 109.207 134.5 102.307 135.9 95.8073C139.3 79.4073 153.2 68.5074 170 68.1074C177.8 67.9074 185.6 68.2073 193.3 68.0073C196.3 67.9073 197.5 68.8073 197.4 72.0073C197.2 79.2073 197.2 86.4074 197.4 93.6074C197.5 96.5074 196.3 97.5073 193.5 97.4073C188.4 97.3073 183.2 97.3073 178.1 97.4073C171 97.5073 167.3 101.207 167.2 108.307C167.1 113.907 167.3 119.507 167.1 125.007C167 128.107 168.2 129.007 171.2 129.007C179.4 128.807 187.6 128.907 196.8 128.907C195.4 139.807 194.1 150.107 192.7 160.907C184.3 160.907 176.1 160.907 167.2 160.907C167.2 186.707 167.2 212.007 167.2 237.307C156.4 237.207 145.6 237.207 134.7 237.207Z" fill="white"/>
</svg>
