<svg width="320" height="320" viewBox="0 0 320 320" fill="none" xmlns="http://www.w3.org/2000/svg">
<path d="M160 314.4C245.604 314.4 315 245.004 315 159.4C315 73.7958 245.604 4.3999 160 4.3999C74.3959 4.3999 5 73.7958 5 159.4C5 245.004 74.3959 314.4 160 314.4Z" fill="white"/>
<path d="M160.1 287.9C230.792 287.9 288.1 230.592 288.1 159.9C288.1 89.2075 230.792 31.8999 160.1 31.8999C89.4075 31.8999 32.1 89.2075 32.1 159.9C32.1 230.592 89.4075 287.9 160.1 287.9Z" fill="black"/>
<path d="M47.253 47.2542L47.2535 47.2536C77.3601 17.1471 117.433 0.5 160 0.5C202.568 0.5 242.64 17.0475 272.746 47.253L272.746 47.2536C274.846 49.3531 274.858 52.8392 272.743 55.0503C270.643 57.1459 267.159 57.1564 264.95 55.0426C236.856 26.9509 199.63 11.6 159.9 11.6C120.167 11.6 82.9404 27.0528 54.8471 55.0458C26.7519 83.0407 11.4 120.369 11.4 160.1C11.4 199.833 26.8528 237.06 54.8458 265.153L54.8464 265.154C112.742 323.049 206.958 323.049 264.854 265.154C266.953 263.054 270.439 263.042 272.65 265.157C274.746 267.257 274.756 270.741 272.642 272.951C241.741 303.85 200.872 319.4 160 319.4C119.127 319.4 78.3559 303.849 47.2535 272.746C17.147 242.64 0.5 202.567 0.5 160C0.5 117.432 17.0475 77.3599 47.253 47.2542Z" fill="black" stroke="white"/>
<path d="M309.621 197.215L309.614 197.213L309.607 197.211C306.67 196.569 304.749 193.631 305.388 190.707L305.389 190.707L305.39 190.698C306.291 186.193 307.094 181.678 307.597 177.158C307.966 174.121 310.726 171.932 313.638 172.296L313.64 172.296C316.677 172.664 318.868 175.425 318.504 178.338L318.504 178.339C317.905 183.226 317.108 188.112 316.111 192.898L316.11 192.899C315.56 195.558 313.272 197.3 310.7 197.3C310.291 197.3 309.952 197.298 309.621 197.215Z" fill="black" stroke="white"/>
<path d="M308.199 149.769L308.199 149.766C307.195 134.916 303.985 120.467 298.667 106.621C296.56 101.102 294.051 95.5825 291.24 90.3629L291.24 90.3629L291.238 90.3584C289.778 87.7125 290.872 84.3188 293.53 82.9441L293.53 82.9442L293.542 82.9377C296.187 81.4779 299.581 82.5717 300.956 85.2297L300.956 85.2297L300.959 85.2361C303.949 90.8174 306.641 96.6982 308.933 102.679C314.615 117.533 318.104 133.083 319.201 149.032C319.383 152.059 317.093 154.709 314.085 154.9H313.7C310.854 154.9 308.382 152.696 308.199 149.769Z" fill="black" stroke="white"/>
<g opacity="0.71">
<path d="M163.075 249.375C155.875 249.375 148.775 249.475 141.575 249.375C134.575 249.275 127.675 249.275 120.775 247.575C104.175 243.575 94.075 233.175 90.375 216.675C89.075 211.075 88.875 205.375 88.875 199.775C88.775 183.375 88.775 166.975 88.875 150.475C88.875 143.675 89.275 136.975 91.175 130.375C95.775 115.175 105.975 105.975 121.375 102.475C126.975 101.175 132.675 100.975 138.275 100.875C154.775 100.775 171.175 100.775 187.675 100.875C194.175 100.875 200.775 101.275 207.175 103.075C222.875 107.475 232.275 117.875 235.775 133.675C237.275 140.275 237.275 147.075 237.375 153.775C237.475 167.975 237.475 182.175 237.375 196.375C237.375 203.375 237.275 210.375 235.675 217.275C231.675 233.975 221.175 244.175 204.475 247.875C197.975 249.275 191.375 249.375 184.775 249.475C177.575 249.475 170.375 249.375 163.075 249.375ZM163.175 113.775C163.175 113.875 163.175 113.875 163.175 113.975C157.175 113.975 151.175 113.875 145.275 113.975C138.475 114.075 131.575 113.975 124.775 115.275C114.075 117.375 106.975 123.575 103.975 134.275C102.675 138.975 102.375 143.875 102.375 148.775C102.275 164.075 102.175 179.375 102.175 194.675C102.175 200.975 102.175 207.275 103.475 213.475C105.675 224.275 111.875 231.375 122.575 234.275C127.175 235.575 131.875 235.875 136.475 235.875C154.175 235.975 171.975 235.975 189.675 235.875C193.575 235.875 197.475 235.475 201.275 234.775C212.175 232.775 219.275 226.475 222.275 215.675C223.575 210.875 223.875 206.075 223.875 201.175C223.975 183.775 223.975 166.475 223.875 149.075C223.875 144.575 223.575 140.175 222.575 135.775C220.875 128.275 216.975 122.275 210.075 118.475C205.175 115.775 199.675 114.675 194.175 114.575C183.875 114.175 173.475 113.975 163.175 113.775Z" fill="#939393" fill-opacity="0.3"/>
<path d="M163.075 136.875C184.375 136.975 201.375 154.075 201.275 175.275C201.175 196.375 183.975 213.375 162.775 213.275C141.675 213.175 124.775 195.875 124.975 174.675C125.075 153.775 142.275 136.775 163.075 136.875ZM163.175 150.175C149.475 150.175 138.375 161.275 138.275 174.975C138.175 188.675 149.375 199.875 163.175 199.875C176.975 199.875 188.075 188.775 188.075 174.975C187.975 161.375 176.875 150.175 163.175 150.175Z" fill="#939393" fill-opacity="0.3"/>
<path d="M202.875 144.275C197.975 144.375 193.975 140.475 193.775 135.575C193.575 130.775 197.575 126.575 202.475 126.475C207.375 126.375 211.575 130.275 211.675 135.175C211.775 140.075 207.875 144.175 202.875 144.275Z" fill="#939393" fill-opacity="0.3"/>
</g>
<path d="M156.275 242.575C149.075 242.575 141.975 242.675 134.775 242.575C127.775 242.475 120.875 242.475 113.975 240.775C97.375 236.775 87.275 226.375 83.575 209.875C82.275 204.275 82.075 198.575 82.075 192.975C81.975 176.575 81.975 160.175 82.075 143.675C82.075 136.875 82.475 130.175 84.375 123.575C88.975 108.375 99.175 99.175 114.575 95.675C120.175 94.375 125.875 94.175 131.475 94.075C147.975 93.975 164.375 93.975 180.875 94.075C187.375 94.075 193.975 94.475 200.375 96.275C216.075 100.675 225.475 111.075 228.975 126.875C230.475 133.475 230.475 140.275 230.575 146.975C230.675 161.175 230.675 175.375 230.575 189.575C230.575 196.575 230.475 203.575 228.875 210.475C224.875 227.175 214.375 237.375 197.675 241.075C191.175 242.475 184.575 242.575 177.975 242.675C170.775 242.675 163.575 242.575 156.275 242.575ZM156.375 106.975C156.375 107.075 156.375 107.075 156.375 107.175C150.375 107.175 144.375 107.075 138.475 107.175C131.675 107.275 124.775 107.175 117.975 108.475C107.275 110.575 100.175 116.775 97.175 127.475C95.875 132.175 95.575 137.075 95.575 141.975C95.475 157.275 95.375 172.575 95.375 187.875C95.375 194.175 95.375 200.475 96.675 206.675C98.875 217.475 105.075 224.575 115.775 227.475C120.375 228.775 125.075 229.075 129.675 229.075C147.375 229.175 165.175 229.175 182.875 229.075C186.775 229.075 190.675 228.675 194.475 227.975C205.375 225.975 212.475 219.675 215.475 208.875C216.775 204.075 217.075 199.275 217.075 194.375C217.175 176.975 217.175 159.675 217.075 142.275C217.075 137.775 216.775 133.375 215.775 128.975C214.075 121.475 210.175 115.475 203.275 111.675C198.375 108.975 192.875 107.875 187.375 107.775C177.075 107.375 166.675 107.175 156.375 106.975Z" fill="white"/>
<path d="M156.275 130.075C177.575 130.175 194.575 147.275 194.475 168.475C194.375 189.575 177.175 206.575 155.975 206.475C134.875 206.375 117.975 189.075 118.175 167.875C118.275 147.075 135.475 129.975 156.275 130.075ZM156.375 143.375C142.675 143.375 131.575 154.475 131.475 168.175C131.375 181.875 142.575 193.075 156.375 193.075C170.175 193.075 181.275 181.975 181.275 168.175C181.175 154.575 170.075 143.375 156.375 143.375Z" fill="white"/>
<path d="M196.175 137.475C191.275 137.575 187.275 133.675 187.075 128.775C186.875 123.975 190.875 119.775 195.775 119.675C200.675 119.575 204.875 123.475 204.975 128.375C204.975 133.375 201.075 137.375 196.175 137.475Z" fill="white"/>
</svg>
