<svg width="320" height="320" viewBox="0 0 320 320" fill="none" xmlns="http://www.w3.org/2000/svg">
<path d="M160 314.4C245.604 314.4 315 245.004 315 159.4C315 73.7958 245.604 4.3999 160 4.3999C74.3959 4.3999 5 73.7958 5 159.4C5 245.004 74.3959 314.4 160 314.4Z" fill="white"/>
<path d="M160.1 287.9C230.792 287.9 288.1 230.592 288.1 159.9C288.1 89.2075 230.792 31.8999 160.1 31.8999C89.4075 31.8999 32.1 89.2075 32.1 159.9C32.1 230.592 89.4075 287.9 160.1 287.9Z" fill="black"/>
<path d="M47.253 47.2542L47.2535 47.2536C77.3601 17.1471 117.433 0.5 160 0.5C202.568 0.5 242.64 17.0475 272.746 47.253L272.746 47.2536C274.846 49.3531 274.858 52.8392 272.743 55.0503C270.643 57.1459 267.159 57.1564 264.95 55.0426C236.856 26.9509 199.63 11.6 159.9 11.6C120.167 11.6 82.9404 27.0528 54.8471 55.0458C26.7519 83.0407 11.4 120.369 11.4 160.1C11.4 199.833 26.8528 237.06 54.8458 265.153L54.8464 265.154C112.742 323.049 206.958 323.049 264.854 265.154C266.953 263.054 270.439 263.042 272.65 265.157C274.746 267.257 274.756 270.741 272.642 272.951C241.741 303.85 200.872 319.4 160 319.4C119.127 319.4 78.3559 303.849 47.2535 272.746C17.147 242.64 0.5 202.567 0.5 160C0.5 117.432 17.0475 77.3599 47.253 47.2542Z" fill="black" stroke="white"/>
<path d="M309.621 197.215L309.614 197.213L309.607 197.211C306.67 196.569 304.749 193.631 305.388 190.707L305.389 190.707L305.39 190.698C306.291 186.193 307.094 181.678 307.597 177.158C307.966 174.121 310.726 171.932 313.638 172.296L313.64 172.296C316.677 172.664 318.868 175.425 318.504 178.338L318.504 178.339C317.905 183.226 317.108 188.112 316.111 192.898L316.11 192.899C315.56 195.558 313.272 197.3 310.7 197.3C310.291 197.3 309.952 197.298 309.621 197.215Z" fill="black" stroke="white"/>
<path d="M308.199 149.769L308.199 149.766C307.195 134.916 303.985 120.467 298.667 106.621C296.56 101.102 294.051 95.5825 291.24 90.3629L291.24 90.3629L291.238 90.3584C289.778 87.7125 290.872 84.3188 293.53 82.9441L293.53 82.9442L293.542 82.9377C296.187 81.4779 299.581 82.5717 300.956 85.2297L300.956 85.2297L300.959 85.2361C303.949 90.8174 306.641 96.6982 308.933 102.679C314.615 117.533 318.104 133.083 319.201 149.032C319.383 152.059 317.093 154.709 314.085 154.9H313.7C310.854 154.9 308.382 152.696 308.199 149.769Z" fill="black" stroke="white"/>
<path d="M174.101 153.101C185.401 139.401 199.301 138.101 214.201 142.701C225.601 146.201 230.801 155.401 232.001 166.501C233.201 177.801 233.301 189.201 233.601 200.501C233.801 209.601 233.601 218.701 233.701 227.701C233.801 231.101 232.801 232.801 229.101 232.601C222.301 232.401 215.601 232.501 208.801 232.601C205.901 232.601 204.801 231.501 204.801 228.501C204.901 214.401 204.901 200.301 204.801 186.101C204.801 183.201 204.501 180.401 204.001 177.501C202.701 169.401 198.701 165.801 191.201 165.601C183.301 165.401 177.701 169.501 176.101 177.001C175.501 179.901 175.101 183.001 175.101 186.001C175.001 199.801 174.901 213.701 175.201 227.501C175.301 231.701 173.801 232.701 170.001 232.601C163.501 232.401 157.001 232.501 150.501 232.601C147.301 232.701 146.201 231.301 146.201 228.201C146.301 201.101 146.301 174.001 146.201 146.901C146.201 143.201 147.701 142.201 151.101 142.301C157.001 142.501 162.901 142.601 168.801 142.301C173.001 142.101 174.601 143.701 174.101 147.801C174.001 149.201 174.101 150.601 174.101 153.101Z" fill="#939393" fill-opacity="0.3"/>
<path d="M130.101 187.601C130.101 201.001 130.001 214.401 130.201 227.801C130.201 231.201 129.401 232.801 125.701 232.701C119.101 232.501 112.501 232.501 105.801 232.701C102.701 232.801 101.401 231.701 101.401 228.501C101.501 201.301 101.501 174.101 101.401 146.801C101.401 143.801 102.301 142.301 105.601 142.401C112.201 142.601 118.901 142.601 125.501 142.401C129.001 142.301 130.301 143.401 130.201 147.001C130.001 160.501 130.101 174.001 130.101 187.601Z" fill="#939393" fill-opacity="0.3"/>
<path d="M115.701 131.601C106.901 131.601 99.201 123.801 99.301 115.001C99.301 106.201 106.901 98.4009 115.801 98.3009C124.601 98.2009 132.801 106.501 132.601 115.201C132.301 124.101 124.601 131.601 115.701 131.601Z" fill="#939393" fill-opacity="0.3"/>
<path d="M161.801 141.801C173.101 128.101 187.001 126.801 201.901 131.401C213.301 134.901 218.501 144.101 219.701 155.201C220.901 166.501 221.001 177.901 221.301 189.201C221.501 198.301 221.301 207.401 221.401 216.401C221.501 219.801 220.501 221.501 216.801 221.301C210.001 221.101 203.301 221.201 196.501 221.301C193.601 221.301 192.501 220.201 192.501 217.201C192.601 203.101 192.601 189.001 192.501 174.801C192.501 171.901 192.201 169.101 191.701 166.201C190.401 158.101 186.401 154.501 178.901 154.301C171.001 154.101 165.401 158.201 163.801 165.701C163.201 168.601 162.801 171.701 162.801 174.701C162.701 188.501 162.601 202.401 162.901 216.201C163.001 220.401 161.501 221.401 157.701 221.301C151.201 221.101 144.701 221.201 138.201 221.301C135.001 221.401 133.901 220.001 133.901 216.901C134.001 189.801 134.001 162.701 133.901 135.601C133.901 131.901 135.401 130.901 138.801 131.001C144.701 131.201 150.601 131.301 156.501 131.001C160.701 130.801 162.301 132.401 161.801 136.501C161.601 137.901 161.801 139.401 161.801 141.801Z" fill="white"/>
<path d="M117.801 176.301C117.801 189.701 117.701 203.101 117.901 216.501C117.901 219.901 117.101 221.501 113.401 221.401C106.801 221.201 100.201 221.201 93.501 221.401C90.401 221.501 89.101 220.401 89.101 217.201C89.201 190.001 89.201 162.801 89.101 135.501C89.101 132.501 90.001 131.001 93.301 131.101C99.901 131.301 106.601 131.301 113.201 131.101C116.701 131.001 118.001 132.101 117.901 135.701C117.701 149.201 117.801 162.801 117.801 176.301Z" fill="white"/>
<path d="M103.401 120.301C94.601 120.301 86.901 112.501 87.001 103.701C87.001 94.9009 94.601 87.1009 103.501 87.0009C112.301 86.9009 120.501 95.2009 120.301 103.901C119.901 112.901 112.201 120.401 103.401 120.301Z" fill="white"/>
</svg>
