<svg width="320" height="320" viewBox="0 0 320 320" fill="none" xmlns="http://www.w3.org/2000/svg">
<path d="M160 314.4C245.604 314.4 315 245.004 315 159.4C315 73.7959 245.604 4.40002 160 4.40002C74.3959 4.40002 5 73.7959 5 159.4C5 245.004 74.3959 314.4 160 314.4Z" fill="white"/>
<path d="M160.1 287.9C230.792 287.9 288.1 230.592 288.1 159.9C288.1 89.2076 230.792 31.9 160.1 31.9C89.4075 31.9 32.1 89.2076 32.1 159.9C32.1 230.592 89.4075 287.9 160.1 287.9Z" fill="#E80000"/>
<path d="M160 319.9C119 319.9 78.1 304.3 46.9 273.1C16.7 242.9 0 202.7 0 160C0 117.3 16.6 77.1 46.9 46.9C77.1 16.7 117.3 0 160 0C202.7 0 242.9 16.6 273.1 46.9C275.4 49.2 275.4 53 273.1 55.4C270.8 57.7 267 57.7 264.6 55.4C236.6 27.4 199.5 12.1 159.9 12.1C120.3 12.1 83.2 27.5 55.2 55.4C27.2 83.3 11.9 120.5 11.9 160.1C11.9 199.7 27.3 236.8 55.2 264.8C112.9 322.5 206.8 322.5 264.5 264.8C266.8 262.5 270.6 262.5 273 264.8C275.3 267.1 275.3 270.9 273 273.3C242 304.3 201 319.9 160 319.9Z" fill="#E80000"/>
<path d="M310.7 197.8C310.3 197.8 309.9 197.8 309.5 197.7C306.3 197 304.2 193.8 304.9 190.6C305.8 186.1 306.6 181.6 307.1 177.1C307.5 173.8 310.5 171.4 313.7 171.8C317 172.2 319.4 175.2 319 178.4C318.4 183.3 317.6 188.2 316.6 193C316 195.9 313.5 197.8 310.7 197.8Z" fill="#E80000"/>
<path d="M313.7 155.4C310.6 155.4 307.9 153 307.7 149.8C306.7 135 303.5 120.6 298.2 106.8C296.1 101.3 293.6 95.8 290.8 90.6C289.2 87.7 290.4 83.9999 293.3 82.4999C296.2 80.8999 299.9 82.0999 301.4 84.9999C304.4 90.5999 307.1 96.4999 309.4 102.5C315.1 117.4 318.6 133 319.7 149C319.9 152.3 317.4 155.2 314.1 155.4C314 155.4 313.8 155.4 313.7 155.4Z" fill="#E80000"/>
<path d="M174.101 153.101C185.401 139.401 199.301 138.101 214.201 142.701C225.601 146.201 230.801 155.401 232.001 166.501C233.201 177.801 233.301 189.201 233.601 200.501C233.801 209.601 233.601 218.701 233.701 227.701C233.801 231.101 232.801 232.801 229.101 232.601C222.301 232.401 215.601 232.501 208.801 232.601C205.901 232.601 204.801 231.501 204.801 228.501C204.901 214.401 204.901 200.301 204.801 186.101C204.801 183.201 204.501 180.401 204.001 177.501C202.701 169.401 198.701 165.801 191.201 165.601C183.301 165.401 177.701 169.501 176.101 177.001C175.501 179.901 175.101 183.001 175.101 186.001C175.001 199.801 174.901 213.701 175.201 227.501C175.301 231.701 173.801 232.701 170.001 232.601C163.501 232.401 157.001 232.501 150.501 232.601C147.301 232.701 146.201 231.301 146.201 228.201C146.301 201.101 146.301 174.001 146.201 146.901C146.201 143.201 147.701 142.201 151.101 142.301C157.001 142.501 162.901 142.601 168.801 142.301C173.001 142.101 174.601 143.701 174.101 147.801C174.001 149.201 174.101 150.601 174.101 153.101Z" fill="#A50404"/>
<path d="M130.101 187.601C130.101 201.001 130.001 214.401 130.201 227.801C130.201 231.201 129.401 232.801 125.701 232.701C119.101 232.501 112.501 232.501 105.801 232.701C102.701 232.801 101.401 231.701 101.401 228.501C101.501 201.301 101.501 174.101 101.401 146.801C101.401 143.801 102.301 142.301 105.601 142.401C112.201 142.601 118.901 142.601 125.501 142.401C129.001 142.301 130.301 143.401 130.201 147.001C130.001 160.501 130.101 174.001 130.101 187.601Z" fill="#A50404"/>
<path d="M115.701 131.601C106.901 131.601 99.201 123.801 99.301 115.001C99.301 106.201 106.901 98.4009 115.801 98.3009C124.601 98.2009 132.801 106.501 132.601 115.201C132.301 124.101 124.601 131.601 115.701 131.601Z" fill="#A50404"/>
<path d="M161.801 141.801C173.101 128.101 187.001 126.801 201.901 131.401C213.301 134.901 218.501 144.101 219.701 155.201C220.901 166.501 221.001 177.901 221.301 189.201C221.501 198.301 221.301 207.401 221.401 216.401C221.501 219.801 220.501 221.501 216.801 221.301C210.001 221.101 203.301 221.201 196.501 221.301C193.601 221.301 192.501 220.201 192.501 217.201C192.601 203.101 192.601 189.001 192.501 174.801C192.501 171.901 192.201 169.101 191.701 166.201C190.401 158.101 186.401 154.501 178.901 154.301C171.001 154.101 165.401 158.201 163.801 165.701C163.201 168.601 162.801 171.701 162.801 174.701C162.701 188.501 162.601 202.401 162.901 216.201C163.001 220.401 161.501 221.401 157.701 221.301C151.201 221.101 144.701 221.201 138.201 221.301C135.001 221.401 133.901 220.001 133.901 216.901C134.001 189.801 134.001 162.701 133.901 135.601C133.901 131.901 135.401 130.901 138.801 131.001C144.701 131.201 150.601 131.301 156.501 131.001C160.701 130.801 162.301 132.401 161.801 136.501C161.601 137.901 161.801 139.401 161.801 141.801Z" fill="white"/>
<path d="M117.801 176.301C117.801 189.701 117.701 203.101 117.901 216.501C117.901 219.901 117.101 221.501 113.401 221.401C106.801 221.201 100.201 221.201 93.501 221.401C90.401 221.501 89.101 220.401 89.101 217.201C89.201 190.001 89.201 162.801 89.101 135.501C89.101 132.501 90.001 131.001 93.301 131.101C99.901 131.301 106.601 131.301 113.201 131.101C116.701 131.001 118.001 132.101 117.901 135.701C117.701 149.201 117.801 162.801 117.801 176.301Z" fill="white"/>
<path d="M103.401 120.301C94.601 120.301 86.901 112.501 87.001 103.701C87.001 94.9009 94.601 87.1009 103.501 87.0009C112.301 86.9009 120.501 95.2009 120.301 103.901C119.901 112.901 112.201 120.401 103.401 120.301Z" fill="white"/>
</svg>
