<svg width="981" height="118" viewBox="0 0 981 118" fill="none" xmlns="http://www.w3.org/2000/svg">
<path d="M46.52 117.016C37.304 117.016 28.568 116.248 20.312 114.712C12.152 113.08 5.864 111.256 1.448 109.24V80.728H33.128C33.128 83.704 33.8 85.864 35.144 87.208C36.488 88.552 38.936 89.224 42.488 89.224C45.464 89.224 47.576 88.792 48.824 87.928C50.168 86.968 50.84 85.576 50.84 83.752C50.84 82.216 50.216 80.92 48.968 79.864C47.72 78.712 45.56 77.56 42.488 76.408L30.104 72.088C19.448 68.056 11.768 63.304 7.064 57.832C2.456 52.36 0.152 44.968 0.152 35.656C0.152 24.328 3.848 15.736 11.24 9.88C18.728 3.92799 31.16 0.951992 48.536 0.951992C56.888 0.951992 64.712 1.81599 72.008 3.54399C79.4 5.17599 85.352 7.384 89.864 10.168V35.944H61.064C61.064 31.144 58.088 28.744 52.136 28.744C49.256 28.744 47.192 29.128 45.944 29.896C44.792 30.568 44.216 31.816 44.216 33.64C44.216 35.272 44.888 36.568 46.232 37.528C47.672 38.488 49.976 39.496 53.144 40.552L65.672 44.872C75.848 48.328 83.24 52.84 87.848 58.408C92.552 63.88 94.904 71.08 94.904 80.008C94.904 92.2 90.776 101.416 82.52 107.656C74.36 113.896 62.36 117.016 46.52 117.016ZM141.535 117.016C127.903 117.016 117.247 113.464 109.567 106.36C101.887 99.16 98.0473 88.696 98.0473 74.968C98.0473 61.24 101.887 50.824 109.567 43.72C117.247 36.52 127.903 32.92 141.535 32.92C155.359 32.92 166.063 36.568 173.647 43.864C181.231 51.064 185.023 61.432 185.023 74.968C185.023 88.696 181.183 99.16 173.503 106.36C165.823 113.464 155.167 117.016 141.535 117.016ZM141.535 91.384C144.319 91.384 146.383 90.664 147.727 89.224C149.167 87.688 149.887 85.336 149.887 82.168V67.768C149.887 64.6 149.167 62.296 147.727 60.856C146.383 59.32 144.319 58.552 141.535 58.552C138.751 58.552 136.639 59.32 135.199 60.856C133.855 62.296 133.183 64.6 133.183 67.768V82.168C133.183 85.336 133.855 87.688 135.199 89.224C136.639 90.664 138.751 91.384 141.535 91.384ZM232.664 117.016C218.936 117.016 208.232 113.464 200.552 106.36C192.872 99.16 189.032 88.696 189.032 74.968C189.032 61.24 192.872 50.824 200.552 43.72C208.232 36.52 218.888 32.92 232.52 32.92C239.144 32.92 245.48 33.832 251.528 35.656C257.576 37.48 262.28 39.544 265.64 41.848V70.36H240.872V67.768C240.872 64.6 240.2 62.296 238.856 60.856C237.512 59.32 235.4 58.552 232.52 58.552C226.952 58.552 224.168 61.624 224.168 67.768V80.152C224.168 87.64 228.44 91.384 236.984 91.384C244.952 91.384 254.216 90.52 264.776 88.792V111.4C261.512 112.84 256.904 114.136 250.952 115.288C245.096 116.44 239 117.016 232.664 117.016ZM277.379 27.016V2.96799H306.755V27.016H277.379ZM270.467 115V91.384H276.803V58.552H270.467V34.936H309.923V91.384H316.259V115H270.467ZM404.2 91.384V115H366.184V105.208C364.072 108.28 361.096 111.016 357.256 113.416C353.512 115.816 348.904 117.016 343.432 117.016C336.232 117.016 330.568 115.096 326.44 111.256C322.312 107.416 320.248 101.992 320.248 94.984C320.248 76.84 335.656 67.528 366.472 67.048C366.184 63.784 364.936 61.576 362.728 60.424C360.52 59.176 356.776 58.552 351.496 58.552C347.176 58.552 342.52 59.032 337.528 59.992C332.632 60.856 328.12 62.056 323.992 63.592V37.096C329.08 35.848 334.6 34.84 340.552 34.072C346.504 33.304 352.312 32.92 357.976 32.92C372.28 32.92 382.504 35.512 388.648 40.696C394.792 45.88 397.864 53.896 397.864 64.744V91.384H404.2ZM366.184 81.304C361.864 81.304 358.504 81.88 356.104 83.032C353.8 84.184 352.648 86.104 352.648 88.792C352.648 90.424 353.128 91.768 354.088 92.824C355.144 93.784 356.584 94.264 358.408 94.264C360.904 94.264 362.824 93.208 364.168 91.096C365.512 88.984 366.184 86.008 366.184 82.168V81.304ZM408.842 115.144V91.384H415.178V26.584H408.842V2.96799H448.298V91.384H454.634V115.144H408.842ZM661.478 26.584H654.278V91.384H661.478V115H607.046V91.384H613.958V40.984L589.478 115H568.166L542.966 41.704V91.384H549.878V115H502.646V91.384H509.846V26.584H502.646V2.96799H568.598L583.574 47.896L597.974 2.96799H661.478V26.584ZM709.801 117.016C696.169 117.016 685.513 113.464 677.833 106.36C670.153 99.16 666.313 88.696 666.313 74.968C666.313 61.24 670.153 50.824 677.833 43.72C685.513 36.52 696.169 32.92 709.801 32.92C723.337 32.92 733.081 36.472 739.033 43.576C745.081 50.584 748.105 59.32 748.105 69.784V80.152H701.449V81.016C701.449 84.568 702.505 87.208 704.617 88.936C706.729 90.568 710.233 91.384 715.129 91.384C720.985 91.384 726.553 90.952 731.833 90.088C737.113 89.224 741.721 88.12 745.657 86.776V109.816C742.297 111.64 737.353 113.32 730.825 114.856C724.393 116.296 717.385 117.016 709.801 117.016ZM718.153 64.312V62.584C718.153 59.32 717.433 56.968 715.993 55.528C714.649 54.088 712.585 53.368 709.801 53.368C707.017 53.368 704.905 54.136 703.465 55.672C702.121 57.112 701.449 59.416 701.449 62.584V64.312H718.153ZM780.757 117.016C770.965 117.016 763.573 113.368 758.581 106.072C753.685 98.776 751.237 88.408 751.237 74.968C751.237 61.528 753.685 51.16 758.581 43.864C763.573 36.568 770.965 32.92 780.757 32.92C785.653 32.92 789.973 34.12 793.717 36.52C797.557 38.92 800.677 41.656 803.077 44.728V26.584H794.581V2.96799H836.197V91.384H842.533V115H803.077V105.208C800.677 108.28 797.557 111.016 793.717 113.416C789.973 115.816 785.653 117.016 780.757 117.016ZM794.725 91.384C797.509 91.384 799.573 90.664 800.917 89.224C802.357 87.688 803.077 85.336 803.077 82.168V67.768C803.077 64.6 802.357 62.296 800.917 60.856C799.573 59.32 797.509 58.552 794.725 58.552C791.941 58.552 789.829 59.32 788.389 60.856C787.045 62.296 786.373 64.6 786.373 67.768V82.168C786.373 85.336 787.045 87.688 788.389 89.224C789.829 90.664 791.941 91.384 794.725 91.384ZM854.082 27.016V2.96799H883.458V27.016H854.082ZM847.17 115V91.384H853.506V58.552H847.17V34.936H886.626V91.384H892.962V115H847.17ZM980.903 91.384V115H942.887V105.208C940.775 108.28 937.799 111.016 933.959 113.416C930.215 115.816 925.607 117.016 920.135 117.016C912.935 117.016 907.271 115.096 903.143 111.256C899.015 107.416 896.951 101.992 896.951 94.984C896.951 76.84 912.359 67.528 943.175 67.048C942.887 63.784 941.639 61.576 939.431 60.424C937.223 59.176 933.479 58.552 928.199 58.552C923.879 58.552 919.223 59.032 914.231 59.992C909.335 60.856 904.823 62.056 900.695 63.592V37.096C905.783 35.848 911.303 34.84 917.255 34.072C923.207 33.304 929.015 32.92 934.679 32.92C948.983 32.92 959.207 35.512 965.351 40.696C971.495 45.88 974.567 53.896 974.567 64.744V91.384H980.903ZM942.887 81.304C938.567 81.304 935.207 81.88 932.807 83.032C930.503 84.184 929.351 86.104 929.351 88.792C929.351 90.424 929.831 91.768 930.791 92.824C931.847 93.784 933.287 94.264 935.111 94.264C937.607 94.264 939.527 93.208 940.871 91.096C942.215 88.984 942.887 86.008 942.887 82.168V81.304Z" fill="white"/>
</svg>
