<svg width="320" height="320" viewBox="0 0 320 320" fill="none" xmlns="http://www.w3.org/2000/svg">
<path d="M160 314.4C245.604 314.4 315 245.004 315 159.4C315 73.7958 245.604 4.3999 160 4.3999C74.3959 4.3999 5 73.7958 5 159.4C5 245.004 74.3959 314.4 160 314.4Z" fill="white"/>
<path d="M160.1 287.9C230.792 287.9 288.1 230.592 288.1 159.9C288.1 89.2075 230.792 31.8999 160.1 31.8999C89.4075 31.8999 32.1 89.2075 32.1 159.9C32.1 230.592 89.4075 287.9 160.1 287.9Z" fill="black"/>
<path d="M47.253 47.2542L47.2535 47.2536C77.3601 17.1471 117.433 0.5 160 0.5C202.568 0.5 242.64 17.0475 272.746 47.253L272.746 47.2536C274.846 49.3531 274.858 52.8392 272.743 55.0503C270.643 57.1459 267.159 57.1564 264.95 55.0426C236.856 26.9509 199.63 11.6 159.9 11.6C120.167 11.6 82.9404 27.0528 54.8471 55.0458C26.7519 83.0407 11.4 120.369 11.4 160.1C11.4 199.833 26.8528 237.06 54.8458 265.153L54.8464 265.154C112.742 323.049 206.958 323.049 264.854 265.154C266.953 263.054 270.439 263.042 272.65 265.157C274.746 267.257 274.756 270.741 272.642 272.951C241.741 303.85 200.872 319.4 160 319.4C119.127 319.4 78.3559 303.849 47.2535 272.746C17.147 242.64 0.5 202.567 0.5 160C0.5 117.432 17.0475 77.3599 47.253 47.2542Z" fill="black" stroke="white"/>
<path d="M309.621 197.215L309.614 197.213L309.607 197.211C306.67 196.569 304.749 193.631 305.388 190.707L305.389 190.707L305.39 190.698C306.291 186.193 307.094 181.678 307.597 177.158C307.966 174.121 310.726 171.932 313.638 172.296L313.64 172.296C316.677 172.664 318.868 175.425 318.504 178.338L318.504 178.339C317.905 183.226 317.108 188.112 316.111 192.898L316.11 192.899C315.56 195.558 313.272 197.3 310.7 197.3C310.291 197.3 309.952 197.298 309.621 197.215Z" fill="black" stroke="white"/>
<path d="M308.199 149.769L308.199 149.766C307.195 134.916 303.985 120.467 298.667 106.621C296.56 101.102 294.051 95.5825 291.24 90.3629L291.24 90.3629L291.238 90.3584C289.778 87.7125 290.872 84.3188 293.53 82.9441L293.53 82.9442L293.542 82.9377C296.187 81.4779 299.581 82.5717 300.956 85.2297L300.956 85.2297L300.959 85.2361C303.949 90.8174 306.641 96.6982 308.933 102.679C314.615 117.533 318.104 133.083 319.201 149.032C319.383 152.059 317.093 154.709 314.085 154.9H313.7C310.854 154.9 308.382 152.696 308.199 149.769Z" fill="black" stroke="white"/>
<path d="M93.7 230.57C106.3 231.77 118.3 229.97 129.8 224.87C135 222.57 139.9 219.67 144.3 215.97C141.4 215.77 138.7 215.37 135.9 214.57C133.2 213.77 130.6 212.77 128.1 211.37C125.6 209.97 123.3 208.27 121.3 206.27C119.2 204.37 117.5 202.17 115.9 199.77C114.4 197.37 113.1 194.87 112.2 191.97C112.6 191.97 112.9 191.97 113.2 192.07C117.8 192.87 122.3 192.57 126.9 191.47C127.1 191.37 127.4 191.27 127.6 191.17C117.2 188.67 109.2 182.87 104.1 173.37C101.3 168.27 100.1 162.87 100.1 156.97C102.6 158.27 105.1 159.27 107.7 159.97C110.3 160.67 112.9 161.07 115.6 161.07C105.5 153.67 100.3 143.77 100.4 131.27C100.5 125.47 102.1 120.17 105 115.07C118.7 131.47 135.7 142.57 156.3 148.07C162.9 149.87 169.6 150.87 176.5 151.17C176.4 150.57 176.3 150.07 176.2 149.57C172.8 131.17 184.5 113.57 202.3 109.57C214.8 106.77 225.7 110.07 234.9 118.97C235.3 119.37 235.7 119.57 236.3 119.47C243.4 117.97 250.1 115.47 256.4 111.87C256.7 111.77 256.9 111.57 257.4 111.37C257.3 111.77 257.2 112.07 257.1 112.37C254.4 119.67 249.8 125.37 243.3 129.67C243.1 129.87 242.8 129.97 242.6 130.27C249.3 129.57 255.6 127.87 261.8 125.17C261.8 125.57 261.5 125.77 261.4 125.97C257.1 132.17 251.8 137.57 245.7 142.07C245.1 142.57 244.9 142.97 244.9 143.77C245.1 147.17 245 150.67 244.7 154.07C244.3 159.97 243.3 165.87 241.8 171.57C237.5 187.87 229.9 202.37 218.5 214.87C205.5 229.17 189.6 238.47 170.8 242.97C166.4 244.07 162 244.67 157.5 245.17C152.1 245.77 146.8 245.77 141.4 245.57C129.3 245.07 117.7 242.17 106.6 237.27C102.5 235.47 98.5 233.37 94.7 230.97C94.2 230.87 93.9 230.77 93.7 230.57ZM186.9 231.77C187 231.77 187 231.77 187.1 231.77C187.1 231.67 187.1 231.47 187.1 231.37H187C186.9 231.47 186.9 231.67 186.9 231.77Z" fill="#939393" fill-opacity="0.3"/>
<path d="M81 219.97C93.6 221.17 105.6 219.37 117.1 214.27C122.3 211.97 127.2 209.07 131.6 205.37C128.7 205.17 126 204.77 123.2 203.97C120.5 203.17 117.9 202.17 115.4 200.77C112.9 199.37 110.6 197.67 108.6 195.67C106.5 193.77 104.8 191.57 103.2 189.17C101.7 186.77 100.4 184.27 99.5 181.37C99.9 181.37 100.2 181.37 100.5 181.47C105.1 182.27 109.6 181.97 114.2 180.87C114.4 180.77 114.7 180.67 114.9 180.57C104.5 178.07 96.5 172.27 91.4 162.77C88.6 157.67 87.4 152.27 87.4 146.37C89.9 147.67 92.4 148.67 95 149.37C97.6 150.07 100.2 150.47 102.9 150.47C92.8 143.07 87.6 133.17 87.7 120.67C87.8 114.87 89.3999 109.57 92.2999 104.47C106 120.87 123 131.97 143.6 137.47C150.2 139.27 156.9 140.27 163.8 140.57C163.7 139.97 163.6 139.47 163.5 138.97C160.1 120.57 171.8 102.97 189.6 98.9701C202.1 96.1701 213 99.47 222.2 108.37C222.6 108.77 223 108.97 223.6 108.87C230.7 107.37 237.4 104.87 243.7 101.27C244 101.17 244.2 100.97 244.7 100.77C244.6 101.17 244.5 101.47 244.4 101.77C241.7 109.07 237.1 114.77 230.6 119.07C230.4 119.27 230.1 119.37 229.9 119.67C236.6 118.97 242.9 117.27 249.1 114.57C249.1 114.97 248.8 115.17 248.7 115.37C244.4 121.57 239.1 126.97 233 131.47C232.4 131.97 232.2 132.37 232.2 133.17C232.4 136.57 232.3 140.07 232 143.47C231.6 149.37 230.6 155.27 229.1 160.97C224.8 177.27 217.2 191.77 205.8 204.27C192.8 218.57 176.9 227.87 158.1 232.37C153.7 233.47 149.3 234.07 144.8 234.57C139.4 235.17 134.1 235.17 128.7 234.97C116.6 234.47 105 231.57 93.9 226.67C89.8 224.87 85.8 222.77 82 220.37C81.5 220.27 81.3 220.07 81 219.97ZM174.2 221.17C174.3 221.17 174.3 221.17 174.4 221.17C174.4 221.07 174.4 220.87 174.4 220.77H174.3C174.2 220.87 174.2 220.97 174.2 221.17Z" fill="white"/>
<path d="M174.2 219.17C174.2 219.07 174.2 218.87 174.2 218.77H174.3C174.3 218.87 174.3 219.07 174.3 219.17C174.3 219.17 174.3 219.17 174.2 219.17Z" fill="black"/>
</svg>
