<svg width="320" height="320" viewBox="0 0 320 320" fill="none" xmlns="http://www.w3.org/2000/svg">
<path d="M160 314.4C245.604 314.4 315 245.004 315 159.4C315 73.7959 245.604 4.40002 160 4.40002C74.3959 4.40002 5 73.7959 5 159.4C5 245.004 74.3959 314.4 160 314.4Z" fill="white"/>
<path d="M160.1 287.9C230.792 287.9 288.1 230.592 288.1 159.9C288.1 89.2076 230.792 31.9 160.1 31.9C89.4075 31.9 32.1 89.2076 32.1 159.9C32.1 230.592 89.4075 287.9 160.1 287.9Z" fill="#E80000"/>
<path d="M160 319.9C119 319.9 78.1 304.3 46.9 273.1C16.7 242.9 0 202.7 0 160C0 117.3 16.6 77.1 46.9 46.9C77.1 16.7 117.3 0 160 0C202.7 0 242.9 16.6 273.1 46.9C275.4 49.2 275.4 53 273.1 55.4C270.8 57.7 267 57.7 264.6 55.4C236.6 27.4 199.5 12.1 159.9 12.1C120.3 12.1 83.2 27.5 55.2 55.4C27.2 83.3 11.9 120.5 11.9 160.1C11.9 199.7 27.3 236.8 55.2 264.8C112.9 322.5 206.8 322.5 264.5 264.8C266.8 262.5 270.6 262.5 273 264.8C275.3 267.1 275.3 270.9 273 273.3C242 304.3 201 319.9 160 319.9Z" fill="#E80000"/>
<path d="M310.7 197.8C310.3 197.8 309.9 197.8 309.5 197.7C306.3 197 304.2 193.8 304.9 190.6C305.8 186.1 306.6 181.6 307.1 177.1C307.5 173.8 310.5 171.4 313.7 171.8C317 172.2 319.4 175.2 319 178.4C318.4 183.3 317.6 188.2 316.6 193C316 195.9 313.5 197.8 310.7 197.8Z" fill="#E80000"/>
<path d="M313.7 155.4C310.6 155.4 307.9 153 307.7 149.8C306.7 135 303.5 120.6 298.2 106.8C296.1 101.3 293.6 95.8 290.8 90.6C289.2 87.7 290.4 83.9999 293.3 82.4999C296.2 80.8999 299.9 82.0999 301.4 84.9999C304.4 90.5999 307.1 96.4999 309.4 102.5C315.1 117.4 318.6 133 319.7 149C319.9 152.3 317.4 155.2 314.1 155.4C314 155.4 313.8 155.4 313.7 155.4Z" fill="#E80000"/>
<path d="M246.5 151C246.1 145.9 245.4 140.9 243.8 136C241.1 128 235.7 123.4 227.7 122.2C222.8 121.5 217.8 121.2 212.9 121C203.7 120.6 194.6 120.3 185.4 120.2C173.9 120.1 162.5 120.2 151 120.3C142.2 120.4 133.3 120.8 124.5 121.1C119.6 121.3 114.7 121.4 109.9 122.5C104.7 123.8 100.6 126.6 97.9 131.3C95.7 135.1 94.5 139.2 94 143.5C93.4 148.4 92.9 153.4 92.7 158.3C92.1 172.2 92 186.1 93.1 200C93.5 205.8 94.1 211.5 96.1 217C97.9 222 100.8 225.8 105.5 228.1C109.4 230 113.7 230.5 117.9 230.9C123.4 231.4 129 231.6 134.5 231.7C146.3 232 158.1 232.3 169.9 232.5C169.9 232.4 169.9 232.3 169.9 232.2C175.8 232.2 181.7 232.3 187.5 232.2C198.2 231.9 208.9 231.5 219.6 231.1C222.9 231 226.3 230.7 229.6 229.9C235.6 228.6 240 225.1 242.7 219.3C244.3 215.8 245.4 212.2 245.8 208.5C246.5 201.6 247.1 194.8 247.3 187.9C247.6 175.7 247.6 163.3 246.5 151Z" fill="#A50404"/>
<path d="M158.2 220.1C146.4 219.8 134.6 219.6 122.8 219.3C117.3 219.1 111.7 218.9 106.2 218.5C102 218.1 97.8001 217.6 93.8001 215.7C89.1001 213.4 86.1 209.6 84.4 204.6C82.4 199.1 81.8 193.3 81.4 187.6C80.4 173.7 80.5001 159.8 81.0001 145.9C81.2001 141 81.7001 136 82.3001 131.1C82.8001 126.8 84.0001 122.6 86.2001 118.9C88.9001 114.2 93.0001 111.3 98.2001 110.1C103 108.9 107.9 108.9 112.8 108.7C121.6 108.3 130.5 108 139.3 107.9C150.8 107.7 162.2 107.7 173.7 107.8C182.9 107.9 192 108.2 201.2 108.6C206.2 108.8 211.1 109.1 216 109.8C224 110.9 229.5 115.6 232.1 123.6C233.7 128.5 234.4 133.5 234.8 138.6C235.9 150.9 235.8 163.3 235.5 175.6C235.3 182.5 234.7 189.4 234 196.2C233.6 200 232.5 203.6 230.9 207C228.3 212.8 223.8 216.3 217.8 217.6C214.5 218.3 211.1 218.6 207.8 218.8C197.1 219.3 186.4 219.6 175.7 219.9C169.8 220.1 164 219.9 158.1 219.9C158.3 219.9 158.2 220 158.2 220.1ZM142.2 139.5C142.2 154.6 142.2 169.4 142.2 184.5C156.2 177 170.1 169.6 184.1 162.1C170.1 154.5 156.2 147.1 142.2 139.5Z" fill="white"/>
<path d="M137.1 131.2C154.3 140.4 171.3 149.6 188.5 158.9C191.1 160.3 191.1 164.1 188.5 165.5C171.3 174.7 154.3 183.8 137.1 193C134.7 194.3 131.8 192.5 131.8 189.7V134.6C131.8 131.7 134.7 129.9 137.1 131.2Z" fill="#E80000"/>
</svg>
